%TF.GenerationSoftware,KiCad,Pcbnew,9.0.7*%
%TF.CreationDate,2026-02-23T18:09:26-05:00*%
%TF.ProjectId,HV_Divider v2,48565f44-6976-4696-9465-722076322e6b,rev?*%
%TF.SameCoordinates,Original*%
%TF.FileFunction,Copper,L2,Bot*%
%TF.FilePolarity,Positive*%
%FSLAX46Y46*%
G04 Gerber Fmt 4.6, Leading zero omitted, Abs format (unit mm)*
G04 Created by KiCad (PCBNEW 9.0.7) date 2026-02-23 18:09:26*
%MOMM*%
%LPD*%
G01*
G04 APERTURE LIST*
G04 Aperture macros list*
%AMRoundRect*
0 Rectangle with rounded corners*
0 $1 Rounding radius*
0 $2 $3 $4 $5 $6 $7 $8 $9 X,Y pos of 4 corners*
0 Add a 4 corners polygon primitive as box body*
4,1,4,$2,$3,$4,$5,$6,$7,$8,$9,$2,$3,0*
0 Add four circle primitives for the rounded corners*
1,1,$1+$1,$2,$3*
1,1,$1+$1,$4,$5*
1,1,$1+$1,$6,$7*
1,1,$1+$1,$8,$9*
0 Add four rect primitives between the rounded corners*
20,1,$1+$1,$2,$3,$4,$5,0*
20,1,$1+$1,$4,$5,$6,$7,0*
20,1,$1+$1,$6,$7,$8,$9,0*
20,1,$1+$1,$8,$9,$2,$3,0*%
G04 Aperture macros list end*
%TA.AperFunction,ComponentPad*%
%ADD10R,1.524000X1.524000*%
%TD*%
%TA.AperFunction,ComponentPad*%
%ADD11C,1.524000*%
%TD*%
%TA.AperFunction,ComponentPad*%
%ADD12RoundRect,0.250000X-1.050000X1.050000X-1.050000X-1.050000X1.050000X-1.050000X1.050000X1.050000X0*%
%TD*%
%TA.AperFunction,ComponentPad*%
%ADD13C,2.600000*%
%TD*%
%TA.AperFunction,ComponentPad*%
%ADD14C,2.800000*%
%TD*%
%TA.AperFunction,ComponentPad*%
%ADD15R,1.398000X1.398000*%
%TD*%
%TA.AperFunction,ComponentPad*%
%ADD16C,1.398000*%
%TD*%
%TA.AperFunction,ComponentPad*%
%ADD17C,3.000000*%
%TD*%
%TA.AperFunction,ComponentPad*%
%ADD18C,5.600000*%
%TD*%
%TA.AperFunction,ViaPad*%
%ADD19C,0.600000*%
%TD*%
%TA.AperFunction,Conductor*%
%ADD20C,0.200000*%
%TD*%
G04 APERTURE END LIST*
D10*
%TO.P,R1,1*%
%TO.N,Net-(U2-IN+)*%
X135430000Y-89000000D03*
D11*
%TO.P,R1,2*%
%TO.N,Net-(C2-Pad1)*%
X112570000Y-89000000D03*
%TD*%
D12*
%TO.P,J3,1,1*%
%TO.N,Net-(U2-V+)*%
X107577500Y-58750000D03*
D13*
%TO.P,J3,2,2*%
%TO.N,Net-(U2-V-)*%
X107577500Y-63750000D03*
%TD*%
D14*
%TO.P,HV INPUT WIRE,1*%
%TO.N,Net-(C2-Pad1)*%
X101500000Y-86250000D03*
%TD*%
D15*
%TO.P,J1,1,In*%
%TO.N,Net-(J1-In)*%
X160222500Y-77991750D03*
D16*
%TO.P,J1,2,Ext*%
%TO.N,GND*%
X160222500Y-75451750D03*
D17*
%TO.P,J1,S1*%
%TO.N,N/C*%
X165302500Y-83071750D03*
%TO.P,J1,S2*%
X165302500Y-72911750D03*
%TD*%
D18*
%TO.P,H5,1,1*%
%TO.N,GND*%
X102000000Y-50500000D03*
%TD*%
D19*
%TO.N,Net-(J1-In)*%
X152000000Y-83250000D03*
X149000000Y-85000000D03*
%TO.N,GND*%
X145750000Y-92475000D03*
X144000000Y-92475000D03*
X152000000Y-87025000D03*
X145000000Y-88250000D03*
%TD*%
D20*
%TO.N,Net-(J1-In)*%
X150750000Y-83250000D02*
X152000000Y-83250000D01*
X149000000Y-85000000D02*
X150750000Y-83250000D01*
%TD*%
%TA.AperFunction,Conductor*%
%TO.N,GND*%
G36*
X174192539Y-47145185D02*
G01*
X174238294Y-47197989D01*
X174249500Y-47249500D01*
X174249500Y-105000500D01*
X174229815Y-105067539D01*
X174177011Y-105113294D01*
X174125500Y-105124500D01*
X138624000Y-105124500D01*
X138556961Y-105104815D01*
X138511206Y-105052011D01*
X138500000Y-105000500D01*
X138500000Y-101128711D01*
X168899500Y-101128711D01*
X168899500Y-101371288D01*
X168931161Y-101611785D01*
X168993947Y-101846104D01*
X169086773Y-102070205D01*
X169086776Y-102070212D01*
X169208064Y-102280289D01*
X169208066Y-102280292D01*
X169208067Y-102280293D01*
X169355733Y-102472736D01*
X169355739Y-102472743D01*
X169527256Y-102644260D01*
X169527262Y-102644265D01*
X169719711Y-102791936D01*
X169929788Y-102913224D01*
X170153900Y-103006054D01*
X170388211Y-103068838D01*
X170568586Y-103092584D01*
X170628711Y-103100500D01*
X170628712Y-103100500D01*
X170871289Y-103100500D01*
X170919388Y-103094167D01*
X171111789Y-103068838D01*
X171346100Y-103006054D01*
X171570212Y-102913224D01*
X171780289Y-102791936D01*
X171972738Y-102644265D01*
X172144265Y-102472738D01*
X172291936Y-102280289D01*
X172413224Y-102070212D01*
X172506054Y-101846100D01*
X172568838Y-101611789D01*
X172600500Y-101371288D01*
X172600500Y-101128712D01*
X172568838Y-100888211D01*
X172506054Y-100653900D01*
X172413224Y-100429788D01*
X172291936Y-100219711D01*
X172144265Y-100027262D01*
X172144260Y-100027256D01*
X171972743Y-99855739D01*
X171972736Y-99855733D01*
X171780293Y-99708067D01*
X171780292Y-99708066D01*
X171780289Y-99708064D01*
X171570212Y-99586776D01*
X171570205Y-99586773D01*
X171346104Y-99493947D01*
X171111785Y-99431161D01*
X170871289Y-99399500D01*
X170871288Y-99399500D01*
X170628712Y-99399500D01*
X170628711Y-99399500D01*
X170388214Y-99431161D01*
X170153895Y-99493947D01*
X169929794Y-99586773D01*
X169929785Y-99586777D01*
X169719706Y-99708067D01*
X169527263Y-99855733D01*
X169527256Y-99855739D01*
X169355739Y-100027256D01*
X169355733Y-100027263D01*
X169208067Y-100219706D01*
X169086777Y-100429785D01*
X169086773Y-100429794D01*
X168993947Y-100653895D01*
X168931161Y-100888214D01*
X168899500Y-101128711D01*
X138500000Y-101128711D01*
X138500000Y-98775151D01*
X138509800Y-98726836D01*
X143967979Y-85825685D01*
X144012229Y-85771613D01*
X144078688Y-85750049D01*
X144082179Y-85750000D01*
X148694189Y-85750000D01*
X148741636Y-85759437D01*
X148766503Y-85769737D01*
X148766510Y-85769738D01*
X148766511Y-85769739D01*
X148921153Y-85800499D01*
X148921156Y-85800500D01*
X148921158Y-85800500D01*
X149078844Y-85800500D01*
X149078845Y-85800499D01*
X149155152Y-85785320D01*
X149233488Y-85769739D01*
X149233488Y-85769738D01*
X149233497Y-85769737D01*
X149258363Y-85759437D01*
X149305811Y-85750000D01*
X154000000Y-85750000D01*
X154075929Y-82940622D01*
X163302000Y-82940622D01*
X163302000Y-83202877D01*
X163311395Y-83274233D01*
X163336230Y-83462866D01*
X163404102Y-83716168D01*
X163404105Y-83716178D01*
X163504453Y-83958440D01*
X163504458Y-83958450D01*
X163635575Y-84185553D01*
X163795218Y-84393601D01*
X163795226Y-84393610D01*
X163980640Y-84579024D01*
X163980648Y-84579031D01*
X164188696Y-84738674D01*
X164415799Y-84869791D01*
X164415809Y-84869796D01*
X164658071Y-84970144D01*
X164658081Y-84970148D01*
X164911384Y-85038020D01*
X165171380Y-85072250D01*
X165171387Y-85072250D01*
X165433613Y-85072250D01*
X165433620Y-85072250D01*
X165693616Y-85038020D01*
X165946919Y-84970148D01*
X166189197Y-84869793D01*
X166416303Y-84738674D01*
X166624351Y-84579032D01*
X166624355Y-84579027D01*
X166624360Y-84579024D01*
X166809774Y-84393610D01*
X166809777Y-84393605D01*
X166809782Y-84393601D01*
X166969424Y-84185553D01*
X167100543Y-83958447D01*
X167200898Y-83716169D01*
X167268770Y-83462866D01*
X167303000Y-83202870D01*
X167303000Y-82940630D01*
X167268770Y-82680634D01*
X167200898Y-82427331D01*
X167165963Y-82342990D01*
X167100546Y-82185059D01*
X167100541Y-82185049D01*
X166969424Y-81957946D01*
X166809781Y-81749898D01*
X166809774Y-81749890D01*
X166624360Y-81564476D01*
X166624351Y-81564468D01*
X166416303Y-81404825D01*
X166189200Y-81273708D01*
X166189190Y-81273703D01*
X165946928Y-81173355D01*
X165946921Y-81173353D01*
X165946919Y-81173352D01*
X165693616Y-81105480D01*
X165635839Y-81097873D01*
X165433627Y-81071250D01*
X165433620Y-81071250D01*
X165171380Y-81071250D01*
X165171372Y-81071250D01*
X164940272Y-81101676D01*
X164911384Y-81105480D01*
X164658081Y-81173352D01*
X164658071Y-81173355D01*
X164415809Y-81273703D01*
X164415799Y-81273708D01*
X164188696Y-81404825D01*
X163980648Y-81564468D01*
X163795218Y-81749898D01*
X163635575Y-81957946D01*
X163504458Y-82185049D01*
X163504453Y-82185059D01*
X163404105Y-82427321D01*
X163404102Y-82427331D01*
X163344573Y-82649500D01*
X163336230Y-82680635D01*
X163302000Y-82940622D01*
X154075929Y-82940622D01*
X154229868Y-77244885D01*
X159023000Y-77244885D01*
X159023000Y-78738620D01*
X159023001Y-78738626D01*
X159029408Y-78798233D01*
X159079702Y-78933078D01*
X159079706Y-78933085D01*
X159165952Y-79048294D01*
X159165955Y-79048297D01*
X159281164Y-79134543D01*
X159281171Y-79134547D01*
X159416017Y-79184841D01*
X159416016Y-79184841D01*
X159422944Y-79185585D01*
X159475627Y-79191250D01*
X160969372Y-79191249D01*
X161028983Y-79184841D01*
X161163831Y-79134546D01*
X161279046Y-79048296D01*
X161365296Y-78933081D01*
X161415591Y-78798233D01*
X161422000Y-78738623D01*
X161421999Y-77244878D01*
X161415591Y-77185267D01*
X161365296Y-77050419D01*
X161365295Y-77050418D01*
X161365293Y-77050414D01*
X161279047Y-76935205D01*
X161279044Y-76935202D01*
X161163835Y-76848956D01*
X161163828Y-76848952D01*
X161028982Y-76798658D01*
X161028983Y-76798658D01*
X160969383Y-76792251D01*
X160969381Y-76792250D01*
X160969373Y-76792250D01*
X160969365Y-76792250D01*
X160749142Y-76792250D01*
X160682103Y-76772565D01*
X160636348Y-76719761D01*
X160626404Y-76650603D01*
X160655429Y-76587047D01*
X160692847Y-76557765D01*
X160850909Y-76477228D01*
X160850914Y-76477225D01*
X160876113Y-76458916D01*
X160307002Y-75889805D01*
X160394264Y-75866424D01*
X160495736Y-75807839D01*
X160578589Y-75724986D01*
X160637174Y-75623514D01*
X160660555Y-75536251D01*
X161229666Y-76105362D01*
X161247975Y-76080164D01*
X161247978Y-76080158D01*
X161333655Y-75912008D01*
X161391977Y-75732513D01*
X161421500Y-75546118D01*
X161421500Y-75357381D01*
X161391977Y-75170986D01*
X161333655Y-74991491D01*
X161247976Y-74823336D01*
X161229666Y-74798136D01*
X160660555Y-75367247D01*
X160637174Y-75279986D01*
X160578589Y-75178514D01*
X160495736Y-75095661D01*
X160394264Y-75037076D01*
X160307002Y-75013694D01*
X160876113Y-74444583D01*
X160876112Y-74444582D01*
X160850913Y-74426273D01*
X160682758Y-74340594D01*
X160503263Y-74282272D01*
X160316868Y-74252750D01*
X160128132Y-74252750D01*
X159941736Y-74282272D01*
X159762241Y-74340594D01*
X159594080Y-74426276D01*
X159568886Y-74444581D01*
X159568886Y-74444582D01*
X160137998Y-75013694D01*
X160050736Y-75037076D01*
X159949264Y-75095661D01*
X159866411Y-75178514D01*
X159807826Y-75279986D01*
X159784444Y-75367248D01*
X159215332Y-74798136D01*
X159215331Y-74798136D01*
X159197026Y-74823330D01*
X159111344Y-74991491D01*
X159053022Y-75170986D01*
X159023500Y-75357381D01*
X159023500Y-75546118D01*
X159053022Y-75732513D01*
X159111344Y-75912008D01*
X159197023Y-76080163D01*
X159215332Y-76105362D01*
X159215333Y-76105363D01*
X159784444Y-75536251D01*
X159807826Y-75623514D01*
X159866411Y-75724986D01*
X159949264Y-75807839D01*
X160050736Y-75866424D01*
X160137998Y-75889805D01*
X159568886Y-76458916D01*
X159594086Y-76477226D01*
X159752153Y-76557765D01*
X159802949Y-76605739D01*
X159819744Y-76673560D01*
X159797207Y-76739695D01*
X159742492Y-76783147D01*
X159695859Y-76792250D01*
X159475630Y-76792250D01*
X159475623Y-76792251D01*
X159416016Y-76798658D01*
X159281171Y-76848952D01*
X159281164Y-76848956D01*
X159165955Y-76935202D01*
X159165952Y-76935205D01*
X159079706Y-77050414D01*
X159079702Y-77050421D01*
X159029408Y-77185267D01*
X159023001Y-77244866D01*
X159023001Y-77244873D01*
X159023000Y-77244885D01*
X154229868Y-77244885D01*
X154250000Y-76500000D01*
X154249999Y-76499997D01*
X154249999Y-76499996D01*
X153793419Y-75400054D01*
X153436158Y-74539380D01*
X152724159Y-72824110D01*
X152706107Y-72780622D01*
X163302000Y-72780622D01*
X163302000Y-73042877D01*
X163328623Y-73245089D01*
X163336230Y-73302866D01*
X163404102Y-73556168D01*
X163404105Y-73556178D01*
X163504453Y-73798440D01*
X163504458Y-73798450D01*
X163635575Y-74025553D01*
X163795218Y-74233601D01*
X163795226Y-74233610D01*
X163980640Y-74419024D01*
X163980648Y-74419031D01*
X163980649Y-74419032D01*
X164029054Y-74456174D01*
X164188696Y-74578674D01*
X164415799Y-74709791D01*
X164415809Y-74709796D01*
X164658071Y-74810144D01*
X164658081Y-74810148D01*
X164911384Y-74878020D01*
X165171380Y-74912250D01*
X165171387Y-74912250D01*
X165433613Y-74912250D01*
X165433620Y-74912250D01*
X165693616Y-74878020D01*
X165946919Y-74810148D01*
X166189197Y-74709793D01*
X166416303Y-74578674D01*
X166624351Y-74419032D01*
X166624355Y-74419027D01*
X166624360Y-74419024D01*
X166809774Y-74233610D01*
X166809777Y-74233605D01*
X166809782Y-74233601D01*
X166969424Y-74025553D01*
X167100543Y-73798447D01*
X167200898Y-73556169D01*
X167268770Y-73302866D01*
X167303000Y-73042870D01*
X167303000Y-72780630D01*
X167268770Y-72520634D01*
X167200898Y-72267331D01*
X167200894Y-72267321D01*
X167100546Y-72025059D01*
X167100541Y-72025049D01*
X166969424Y-71797946D01*
X166809781Y-71589898D01*
X166809774Y-71589890D01*
X166624360Y-71404476D01*
X166624351Y-71404468D01*
X166416303Y-71244825D01*
X166189200Y-71113708D01*
X166189190Y-71113703D01*
X165946928Y-71013355D01*
X165946921Y-71013353D01*
X165946919Y-71013352D01*
X165693616Y-70945480D01*
X165635839Y-70937873D01*
X165433627Y-70911250D01*
X165433620Y-70911250D01*
X165171380Y-70911250D01*
X165171372Y-70911250D01*
X164940272Y-70941676D01*
X164911384Y-70945480D01*
X164658081Y-71013352D01*
X164658071Y-71013355D01*
X164415809Y-71113703D01*
X164415799Y-71113708D01*
X164188696Y-71244825D01*
X163980648Y-71404468D01*
X163795218Y-71589898D01*
X163635575Y-71797946D01*
X163504458Y-72025049D01*
X163504453Y-72025059D01*
X163404105Y-72267321D01*
X163404102Y-72267331D01*
X163336230Y-72520635D01*
X163302000Y-72780622D01*
X152706107Y-72780622D01*
X148750000Y-63250000D01*
X127749988Y-61499999D01*
X98623440Y-61251054D01*
X98556571Y-61230798D01*
X98511269Y-61177605D01*
X98500500Y-61127059D01*
X98500500Y-57649983D01*
X105777000Y-57649983D01*
X105777000Y-59850001D01*
X105777001Y-59850018D01*
X105787500Y-59952796D01*
X105787501Y-59952799D01*
X105842685Y-60119331D01*
X105842686Y-60119334D01*
X105934788Y-60268656D01*
X106058844Y-60392712D01*
X106208166Y-60484814D01*
X106374703Y-60539999D01*
X106477491Y-60550500D01*
X108677508Y-60550499D01*
X108780297Y-60539999D01*
X108946834Y-60484814D01*
X109096156Y-60392712D01*
X109220212Y-60268656D01*
X109312314Y-60119334D01*
X109367499Y-59952797D01*
X109378000Y-59850009D01*
X109377999Y-57649992D01*
X109367499Y-57547203D01*
X109312314Y-57380666D01*
X109220212Y-57231344D01*
X109096156Y-57107288D01*
X108946834Y-57015186D01*
X108780297Y-56960001D01*
X108780295Y-56960000D01*
X108677510Y-56949500D01*
X106477498Y-56949500D01*
X106477481Y-56949501D01*
X106374703Y-56960000D01*
X106374700Y-56960001D01*
X106208168Y-57015185D01*
X106208163Y-57015187D01*
X106058842Y-57107289D01*
X105934789Y-57231342D01*
X105842687Y-57380663D01*
X105842686Y-57380666D01*
X105787501Y-57547203D01*
X105787501Y-57547204D01*
X105787500Y-57547204D01*
X105777000Y-57649983D01*
X98500500Y-57649983D01*
X98500500Y-50128711D01*
X121149500Y-50128711D01*
X121149500Y-50371288D01*
X121181161Y-50611785D01*
X121243947Y-50846104D01*
X121336773Y-51070205D01*
X121336776Y-51070212D01*
X121458064Y-51280289D01*
X121458066Y-51280292D01*
X121458067Y-51280293D01*
X121605733Y-51472736D01*
X121605739Y-51472743D01*
X121777256Y-51644260D01*
X121777262Y-51644265D01*
X121969711Y-51791936D01*
X122179788Y-51913224D01*
X122403900Y-52006054D01*
X122638211Y-52068838D01*
X122818586Y-52092584D01*
X122878711Y-52100500D01*
X122878712Y-52100500D01*
X123121289Y-52100500D01*
X123169388Y-52094167D01*
X123361789Y-52068838D01*
X123596100Y-52006054D01*
X123820212Y-51913224D01*
X124030289Y-51791936D01*
X124222738Y-51644265D01*
X124394265Y-51472738D01*
X124541936Y-51280289D01*
X124663224Y-51070212D01*
X124756054Y-50846100D01*
X124818838Y-50611789D01*
X124850500Y-50371288D01*
X124850500Y-50128712D01*
X124850500Y-50128711D01*
X168899500Y-50128711D01*
X168899500Y-50371288D01*
X168931161Y-50611785D01*
X168993947Y-50846104D01*
X169086773Y-51070205D01*
X169086776Y-51070212D01*
X169208064Y-51280289D01*
X169208066Y-51280292D01*
X169208067Y-51280293D01*
X169355733Y-51472736D01*
X169355739Y-51472743D01*
X169527256Y-51644260D01*
X169527262Y-51644265D01*
X169719711Y-51791936D01*
X169929788Y-51913224D01*
X170153900Y-52006054D01*
X170388211Y-52068838D01*
X170568586Y-52092584D01*
X170628711Y-52100500D01*
X170628712Y-52100500D01*
X170871289Y-52100500D01*
X170919388Y-52094167D01*
X171111789Y-52068838D01*
X171346100Y-52006054D01*
X171570212Y-51913224D01*
X171780289Y-51791936D01*
X171972738Y-51644265D01*
X172144265Y-51472738D01*
X172291936Y-51280289D01*
X172413224Y-51070212D01*
X172506054Y-50846100D01*
X172568838Y-50611789D01*
X172600500Y-50371288D01*
X172600500Y-50128712D01*
X172568838Y-49888211D01*
X172506054Y-49653900D01*
X172413224Y-49429788D01*
X172291936Y-49219711D01*
X172144265Y-49027262D01*
X172144260Y-49027256D01*
X171972743Y-48855739D01*
X171972736Y-48855733D01*
X171780293Y-48708067D01*
X171780292Y-48708066D01*
X171780289Y-48708064D01*
X171570212Y-48586776D01*
X171570205Y-48586773D01*
X171346104Y-48493947D01*
X171111785Y-48431161D01*
X170871289Y-48399500D01*
X170871288Y-48399500D01*
X170628712Y-48399500D01*
X170628711Y-48399500D01*
X170388214Y-48431161D01*
X170153895Y-48493947D01*
X169929794Y-48586773D01*
X169929785Y-48586777D01*
X169719706Y-48708067D01*
X169527263Y-48855733D01*
X169527256Y-48855739D01*
X169355739Y-49027256D01*
X169355733Y-49027263D01*
X169208067Y-49219706D01*
X169086777Y-49429785D01*
X169086773Y-49429794D01*
X168993947Y-49653895D01*
X168931161Y-49888214D01*
X168899500Y-50128711D01*
X124850500Y-50128711D01*
X124818838Y-49888211D01*
X124756054Y-49653900D01*
X124663224Y-49429788D01*
X124541936Y-49219711D01*
X124394265Y-49027262D01*
X124394260Y-49027256D01*
X124222743Y-48855739D01*
X124222736Y-48855733D01*
X124030293Y-48708067D01*
X124030292Y-48708066D01*
X124030289Y-48708064D01*
X123820212Y-48586776D01*
X123820205Y-48586773D01*
X123596104Y-48493947D01*
X123361785Y-48431161D01*
X123121289Y-48399500D01*
X123121288Y-48399500D01*
X122878712Y-48399500D01*
X122878711Y-48399500D01*
X122638214Y-48431161D01*
X122403895Y-48493947D01*
X122179794Y-48586773D01*
X122179785Y-48586777D01*
X121969706Y-48708067D01*
X121777263Y-48855733D01*
X121777256Y-48855739D01*
X121605739Y-49027256D01*
X121605733Y-49027263D01*
X121458067Y-49219706D01*
X121336777Y-49429785D01*
X121336773Y-49429794D01*
X121243947Y-49653895D01*
X121181161Y-49888214D01*
X121149500Y-50128711D01*
X98500500Y-50128711D01*
X98500500Y-47249500D01*
X98520185Y-47182461D01*
X98572989Y-47136706D01*
X98624500Y-47125500D01*
X174125500Y-47125500D01*
X174192539Y-47145185D01*
G37*
%TD.AperFunction*%
%TD*%
M02*
