%TF.GenerationSoftware,KiCad,Pcbnew,9.0.7*%
%TF.CreationDate,2026-02-23T18:35:15-05:00*%
%TF.ProjectId,power_supply,706f7765-725f-4737-9570-706c792e6b69,rev?*%
%TF.SameCoordinates,Original*%
%TF.FileFunction,Copper,L2,Bot*%
%TF.FilePolarity,Positive*%
%FSLAX46Y46*%
G04 Gerber Fmt 4.6, Leading zero omitted, Abs format (unit mm)*
G04 Created by KiCad (PCBNEW 9.0.7) date 2026-02-23 18:35:15*
%MOMM*%
%LPD*%
G01*
G04 APERTURE LIST*
G04 Aperture macros list*
%AMRoundRect*
0 Rectangle with rounded corners*
0 $1 Rounding radius*
0 $2 $3 $4 $5 $6 $7 $8 $9 X,Y pos of 4 corners*
0 Add a 4 corners polygon primitive as box body*
4,1,4,$2,$3,$4,$5,$6,$7,$8,$9,$2,$3,0*
0 Add four circle primitives for the rounded corners*
1,1,$1+$1,$2,$3*
1,1,$1+$1,$4,$5*
1,1,$1+$1,$6,$7*
1,1,$1+$1,$8,$9*
0 Add four rect primitives between the rounded corners*
20,1,$1+$1,$2,$3,$4,$5,0*
20,1,$1+$1,$4,$5,$6,$7,0*
20,1,$1+$1,$6,$7,$8,$9,0*
20,1,$1+$1,$8,$9,$2,$3,0*%
G04 Aperture macros list end*
%TA.AperFunction,ComponentPad*%
%ADD10RoundRect,0.250000X1.050000X1.050000X-1.050000X1.050000X-1.050000X-1.050000X1.050000X-1.050000X0*%
%TD*%
%TA.AperFunction,ComponentPad*%
%ADD11C,2.600000*%
%TD*%
%TA.AperFunction,ComponentPad*%
%ADD12RoundRect,0.250000X-1.050000X1.050000X-1.050000X-1.050000X1.050000X-1.050000X1.050000X1.050000X0*%
%TD*%
%TA.AperFunction,ComponentPad*%
%ADD13R,2.600000X2.600000*%
%TD*%
%TA.AperFunction,ComponentPad*%
%ADD14C,5.600000*%
%TD*%
%TA.AperFunction,ComponentPad*%
%ADD15RoundRect,0.250000X0.675000X-0.675000X0.675000X0.675000X-0.675000X0.675000X-0.675000X-0.675000X0*%
%TD*%
%TA.AperFunction,ComponentPad*%
%ADD16C,1.850000*%
%TD*%
%TA.AperFunction,ComponentPad*%
%ADD17RoundRect,0.250001X-0.949999X0.949999X-0.949999X-0.949999X0.949999X-0.949999X0.949999X0.949999X0*%
%TD*%
%TA.AperFunction,ComponentPad*%
%ADD18C,2.400000*%
%TD*%
%TA.AperFunction,ViaPad*%
%ADD19C,0.600000*%
%TD*%
%TA.AperFunction,Conductor*%
%ADD20C,0.750000*%
%TD*%
G04 APERTURE END LIST*
D10*
%TO.P,J11,1,1*%
%TO.N,Net-(PS1-+Vout)*%
X164250000Y-100500000D03*
D11*
%TO.P,J11,2,2*%
%TO.N,Net-(PS1--Vout)*%
X159250000Y-100500000D03*
%TD*%
D10*
%TO.P,J1,1,1*%
%TO.N,Net-(PS1-+Vout)*%
X236000000Y-100500000D03*
D11*
%TO.P,J1,2,2*%
%TO.N,Net-(PS1--Vout)*%
X231000000Y-100500000D03*
%TD*%
D10*
%TO.P,J2,1,1*%
%TO.N,Net-(PS1-+Vout)*%
X224500000Y-100500000D03*
D11*
%TO.P,J2,2,2*%
%TO.N,Net-(PS1--Vout)*%
X219500000Y-100500000D03*
%TD*%
D10*
%TO.P,J14,1,1*%
%TO.N,Net-(PS1-+Vout)*%
X176250000Y-100577500D03*
D11*
%TO.P,J14,2,2*%
%TO.N,Net-(PS1--Vout)*%
X171250000Y-100577500D03*
%TD*%
D10*
%TO.P,J4,1,1*%
%TO.N,Net-(PS1-+Vout)*%
X93750000Y-100500000D03*
D11*
%TO.P,J4,2,2*%
%TO.N,Net-(PS1--Vout)*%
X88750000Y-100500000D03*
%TD*%
D10*
%TO.P,J6,1,1*%
%TO.N,Net-(PS1-+Vout)*%
X117250000Y-100577500D03*
D11*
%TO.P,J6,2,2*%
%TO.N,Net-(PS1--Vout)*%
X112250000Y-100577500D03*
%TD*%
D10*
%TO.P,J7,1,1*%
%TO.N,Net-(PS1-+Vout)*%
X129250000Y-100577500D03*
D11*
%TO.P,J7,2,2*%
%TO.N,Net-(PS1--Vout)*%
X124250000Y-100577500D03*
%TD*%
D12*
%TO.P,J16,1,1*%
%TO.N,GND*%
X68250000Y-124000000D03*
D11*
%TO.P,J16,2,2*%
%TO.N,Net-(D1-A2)*%
X68250000Y-129000000D03*
%TD*%
D13*
%TO.P,J17,1*%
%TO.N,Net-(D1-A1)*%
X70750000Y-112000000D03*
D11*
%TO.P,J17,2*%
%TO.N,GND*%
X64750000Y-112000000D03*
%TO.P,J17,3*%
%TO.N,N/C*%
X67750000Y-116700000D03*
%TD*%
D14*
%TO.P,Ground Strap,1*%
%TO.N,GND*%
X119750000Y-132500000D03*
%TD*%
D10*
%TO.P,J9,1,1*%
%TO.N,Net-(PS1-+Vout)*%
X105500000Y-100500000D03*
D11*
%TO.P,J9,2,2*%
%TO.N,Net-(PS1--Vout)*%
X100500000Y-100500000D03*
%TD*%
D10*
%TO.P,J10,1,1*%
%TO.N,Net-(PS1-+Vout)*%
X141000000Y-100500000D03*
D11*
%TO.P,J10,2,2*%
%TO.N,Net-(PS1--Vout)*%
X136000000Y-100500000D03*
%TD*%
D10*
%TO.P,J3,1,1*%
%TO.N,Net-(PS1-+Vout)*%
X213000000Y-100500000D03*
D11*
%TO.P,J3,2,2*%
%TO.N,Net-(PS1--Vout)*%
X208000000Y-100500000D03*
%TD*%
D10*
%TO.P,J13,1,1*%
%TO.N,Net-(PS1-+Vout)*%
X152500000Y-100500000D03*
D11*
%TO.P,J13,2,2*%
%TO.N,Net-(PS1--Vout)*%
X147500000Y-100500000D03*
%TD*%
D10*
%TO.P,J5,1,1*%
%TO.N,Net-(PS1-+Vout)*%
X201500000Y-100500000D03*
D11*
%TO.P,J5,2,2*%
%TO.N,Net-(PS1--Vout)*%
X196500000Y-100500000D03*
%TD*%
D10*
%TO.P,J15,1,1*%
%TO.N,Net-(PS1-+Vout)*%
X189250000Y-100500000D03*
D11*
%TO.P,J15,2,2*%
%TO.N,Net-(PS1--Vout)*%
X184250000Y-100500000D03*
%TD*%
D15*
%TO.P,PS1,1,-Vin*%
%TO.N,Net-(D1-A2)*%
X101180000Y-125557500D03*
D16*
%TO.P,PS1,2,NC*%
%TO.N,unconnected-(PS1-NC-Pad2)*%
X116420000Y-125557500D03*
%TO.P,PS1,3,+Vin*%
%TO.N,Net-(D1-A1)*%
X101180000Y-117937500D03*
%TO.P,PS1,4,-Vout*%
%TO.N,Net-(PS1--Vout)*%
X108800000Y-117937500D03*
%TO.P,PS1,5,+Vout*%
%TO.N,Net-(PS1-+Vout)*%
X113880000Y-117937500D03*
%TO.P,PS1,6,0V*%
%TO.N,GND*%
X116420000Y-117937500D03*
%TD*%
D17*
%TO.P,C1,1*%
%TO.N,Net-(D1-A1)*%
X82250000Y-119176041D03*
D18*
%TO.P,C1,2*%
%TO.N,Net-(D1-A2)*%
X82250000Y-124176041D03*
%TD*%
D10*
%TO.P,J12,1,1*%
%TO.N,Net-(PS1-+Vout)*%
X82000000Y-100500000D03*
D11*
%TO.P,J12,2,2*%
%TO.N,Net-(PS1--Vout)*%
X77000000Y-100500000D03*
%TD*%
D10*
%TO.P,J8,1,1*%
%TO.N,Net-(PS1-+Vout)*%
X70250000Y-100500000D03*
D11*
%TO.P,J8,2,2*%
%TO.N,Net-(PS1--Vout)*%
X65250000Y-100500000D03*
%TD*%
D19*
%TO.N,GND*%
X116500000Y-114500000D03*
X103500000Y-111250000D03*
X106500000Y-114500000D03*
X119250000Y-111500000D03*
%TO.N,Net-(PS1--Vout)*%
X108000000Y-108500000D03*
%TD*%
D20*
%TO.N,Net-(PS1--Vout)*%
X217324000Y-98324000D02*
X219500000Y-100500000D01*
X210176000Y-98324000D02*
X217324000Y-98324000D01*
X138176000Y-98324000D02*
X145324000Y-98324000D01*
X102250000Y-102250000D02*
X100500000Y-100500000D01*
X100500000Y-100500000D02*
X98324000Y-98324000D01*
X114426000Y-98401500D02*
X122074000Y-98401500D01*
X196500000Y-100500000D02*
X199000000Y-103000000D01*
X108000000Y-107000000D02*
X108000000Y-104827500D01*
X124250000Y-100577500D02*
X126426000Y-102753500D01*
X228824000Y-102676000D02*
X231000000Y-100500000D01*
X90926000Y-98324000D02*
X88750000Y-100500000D01*
X199000000Y-103000000D02*
X205500000Y-103000000D01*
X88750000Y-100500000D02*
X86574000Y-102676000D01*
X186426000Y-98324000D02*
X194324000Y-98324000D01*
X205500000Y-103000000D02*
X208000000Y-100500000D01*
X86574000Y-102676000D02*
X79176000Y-102676000D01*
X136000000Y-100500000D02*
X138176000Y-98324000D01*
X145324000Y-98324000D02*
X147500000Y-100500000D01*
X181996500Y-102753500D02*
X184250000Y-100500000D01*
X184250000Y-100500000D02*
X186426000Y-98324000D01*
X147500000Y-100500000D02*
X149676000Y-102676000D01*
X171250000Y-100577500D02*
X173426000Y-102753500D01*
X167922500Y-97250000D02*
X171250000Y-100577500D01*
X219500000Y-100500000D02*
X221676000Y-102676000D01*
X108000000Y-107000000D02*
X103250000Y-102250000D01*
X157074000Y-102676000D02*
X159250000Y-100500000D01*
X208000000Y-100500000D02*
X210176000Y-98324000D01*
X221676000Y-102676000D02*
X228824000Y-102676000D01*
X194324000Y-98324000D02*
X196500000Y-100500000D01*
X103250000Y-102250000D02*
X102250000Y-102250000D01*
X108000000Y-108500000D02*
X108000000Y-107000000D01*
X74824000Y-98324000D02*
X67426000Y-98324000D01*
X79176000Y-102676000D02*
X77000000Y-100500000D01*
X133746500Y-102753500D02*
X136000000Y-100500000D01*
X173426000Y-102753500D02*
X181996500Y-102753500D01*
X77000000Y-100500000D02*
X74824000Y-98324000D01*
X112250000Y-100577500D02*
X114426000Y-98401500D01*
X159250000Y-100500000D02*
X162500000Y-97250000D01*
X67426000Y-98324000D02*
X65250000Y-100500000D01*
X122074000Y-98401500D02*
X124250000Y-100577500D01*
X162500000Y-97250000D02*
X167922500Y-97250000D01*
X149676000Y-102676000D02*
X157074000Y-102676000D01*
X108000000Y-104827500D02*
X112250000Y-100577500D01*
X98324000Y-98324000D02*
X90926000Y-98324000D01*
X126426000Y-102753500D02*
X133746500Y-102753500D01*
%TD*%
%TA.AperFunction,Conductor*%
%TO.N,GND*%
G36*
X123692662Y-109769891D02*
G01*
X123738608Y-109822530D01*
X123750000Y-109874448D01*
X123750000Y-115886696D01*
X123730315Y-115953735D01*
X123677511Y-115999490D01*
X123658097Y-116006469D01*
X123616853Y-116017520D01*
X123556812Y-116033608D01*
X123442686Y-116099500D01*
X123442683Y-116099502D01*
X123349502Y-116192683D01*
X123349500Y-116192686D01*
X123283608Y-116306812D01*
X123249500Y-116434108D01*
X123249500Y-135875500D01*
X123229815Y-135942539D01*
X123177011Y-135988294D01*
X123125500Y-135999500D01*
X55124500Y-135999500D01*
X55057461Y-135979815D01*
X55011706Y-135927011D01*
X55000500Y-135875500D01*
X55000500Y-132878711D01*
X89149500Y-132878711D01*
X89149500Y-133121288D01*
X89181161Y-133361785D01*
X89243947Y-133596104D01*
X89336773Y-133820205D01*
X89336776Y-133820212D01*
X89458064Y-134030289D01*
X89458066Y-134030292D01*
X89458067Y-134030293D01*
X89605733Y-134222736D01*
X89605739Y-134222743D01*
X89777256Y-134394260D01*
X89777262Y-134394265D01*
X89969711Y-134541936D01*
X90179788Y-134663224D01*
X90403900Y-134756054D01*
X90638211Y-134818838D01*
X90818586Y-134842584D01*
X90878711Y-134850500D01*
X90878712Y-134850500D01*
X91121289Y-134850500D01*
X91169388Y-134844167D01*
X91361789Y-134818838D01*
X91596100Y-134756054D01*
X91820212Y-134663224D01*
X92030289Y-134541936D01*
X92222738Y-134394265D01*
X92394265Y-134222738D01*
X92541936Y-134030289D01*
X92663224Y-133820212D01*
X92756054Y-133596100D01*
X92818838Y-133361789D01*
X92850500Y-133121288D01*
X92850500Y-132878712D01*
X92818838Y-132638211D01*
X92756054Y-132403900D01*
X92663224Y-132179788D01*
X92541936Y-131969711D01*
X92394265Y-131777262D01*
X92394260Y-131777256D01*
X92222743Y-131605739D01*
X92222736Y-131605733D01*
X92030293Y-131458067D01*
X92030292Y-131458066D01*
X92030289Y-131458064D01*
X91820212Y-131336776D01*
X91820205Y-131336773D01*
X91596104Y-131243947D01*
X91361785Y-131181161D01*
X91121289Y-131149500D01*
X91121288Y-131149500D01*
X90878712Y-131149500D01*
X90878711Y-131149500D01*
X90638214Y-131181161D01*
X90403895Y-131243947D01*
X90179794Y-131336773D01*
X90179785Y-131336777D01*
X89969706Y-131458067D01*
X89777263Y-131605733D01*
X89777256Y-131605739D01*
X89605739Y-131777256D01*
X89605733Y-131777263D01*
X89458067Y-131969706D01*
X89336777Y-132179785D01*
X89336773Y-132179794D01*
X89243947Y-132403895D01*
X89181161Y-132638214D01*
X89149500Y-132878711D01*
X55000500Y-132878711D01*
X55000500Y-128881995D01*
X66449500Y-128881995D01*
X66449500Y-129118004D01*
X66449501Y-129118020D01*
X66480306Y-129352010D01*
X66541394Y-129579993D01*
X66631714Y-129798045D01*
X66631719Y-129798056D01*
X66702677Y-129920957D01*
X66749727Y-130002450D01*
X66749729Y-130002453D01*
X66749730Y-130002454D01*
X66893406Y-130189697D01*
X66893412Y-130189704D01*
X67060295Y-130356587D01*
X67060301Y-130356592D01*
X67247550Y-130500273D01*
X67378918Y-130576118D01*
X67451943Y-130618280D01*
X67451948Y-130618282D01*
X67451951Y-130618284D01*
X67670007Y-130708606D01*
X67897986Y-130769693D01*
X68131989Y-130800500D01*
X68131996Y-130800500D01*
X68368004Y-130800500D01*
X68368011Y-130800500D01*
X68602014Y-130769693D01*
X68829993Y-130708606D01*
X69048049Y-130618284D01*
X69252450Y-130500273D01*
X69439699Y-130356592D01*
X69606592Y-130189699D01*
X69750273Y-130002450D01*
X69868284Y-129798049D01*
X69958606Y-129579993D01*
X70019693Y-129352014D01*
X70050500Y-129118011D01*
X70050500Y-128881989D01*
X70019693Y-128647986D01*
X69958606Y-128420007D01*
X69868284Y-128201951D01*
X69868282Y-128201948D01*
X69868280Y-128201943D01*
X69826118Y-128128918D01*
X69750273Y-127997550D01*
X69606592Y-127810301D01*
X69606587Y-127810295D01*
X69439704Y-127643412D01*
X69439697Y-127643406D01*
X69252454Y-127499730D01*
X69252453Y-127499729D01*
X69252450Y-127499727D01*
X69170957Y-127452677D01*
X69048056Y-127381719D01*
X69048045Y-127381714D01*
X68829993Y-127291394D01*
X68602010Y-127230306D01*
X68368020Y-127199501D01*
X68368017Y-127199500D01*
X68368011Y-127199500D01*
X68131989Y-127199500D01*
X68131983Y-127199500D01*
X68131979Y-127199501D01*
X67897989Y-127230306D01*
X67670006Y-127291394D01*
X67451954Y-127381714D01*
X67451943Y-127381719D01*
X67247545Y-127499730D01*
X67060302Y-127643406D01*
X67060295Y-127643412D01*
X66893412Y-127810295D01*
X66893406Y-127810302D01*
X66749730Y-127997545D01*
X66631719Y-128201943D01*
X66631714Y-128201954D01*
X66541394Y-128420006D01*
X66480306Y-128647989D01*
X66449501Y-128881979D01*
X66449500Y-128881995D01*
X55000500Y-128881995D01*
X55000500Y-122900013D01*
X66450000Y-122900013D01*
X66450000Y-123750000D01*
X67649999Y-123750000D01*
X67624979Y-123810402D01*
X67600000Y-123935981D01*
X67600000Y-124064019D01*
X67624979Y-124189598D01*
X67649999Y-124250000D01*
X66450001Y-124250000D01*
X66450001Y-125099986D01*
X66460494Y-125202697D01*
X66515641Y-125369119D01*
X66515643Y-125369124D01*
X66607684Y-125518345D01*
X66731654Y-125642315D01*
X66880875Y-125734356D01*
X66880880Y-125734358D01*
X67047302Y-125789505D01*
X67047309Y-125789506D01*
X67150019Y-125799999D01*
X67999999Y-125799999D01*
X68000000Y-125799998D01*
X68000000Y-124600001D01*
X68060402Y-124625021D01*
X68185981Y-124650000D01*
X68314019Y-124650000D01*
X68439598Y-124625021D01*
X68500000Y-124600001D01*
X68500000Y-125799999D01*
X69349972Y-125799999D01*
X69349986Y-125799998D01*
X69452697Y-125789505D01*
X69619119Y-125734358D01*
X69619124Y-125734356D01*
X69768345Y-125642315D01*
X69892315Y-125518345D01*
X69984356Y-125369124D01*
X69984358Y-125369119D01*
X70039505Y-125202697D01*
X70039506Y-125202690D01*
X70049999Y-125099986D01*
X70050000Y-125099973D01*
X70050000Y-124250000D01*
X68850001Y-124250000D01*
X68875021Y-124189598D01*
X68899886Y-124064590D01*
X80549500Y-124064590D01*
X80549500Y-124287491D01*
X80549501Y-124287507D01*
X80578594Y-124508493D01*
X80578595Y-124508498D01*
X80578596Y-124508504D01*
X80610844Y-124628855D01*
X80636290Y-124723821D01*
X80636293Y-124723831D01*
X80721593Y-124929763D01*
X80721595Y-124929767D01*
X80833052Y-125122815D01*
X80833057Y-125122821D01*
X80833058Y-125122823D01*
X80968751Y-125299663D01*
X80968757Y-125299670D01*
X81126370Y-125457283D01*
X81126376Y-125457288D01*
X81303226Y-125592989D01*
X81496274Y-125704446D01*
X81568488Y-125734358D01*
X81701627Y-125789506D01*
X81702219Y-125789751D01*
X81917537Y-125847445D01*
X82138543Y-125876541D01*
X82138550Y-125876541D01*
X82361450Y-125876541D01*
X82361457Y-125876541D01*
X82582463Y-125847445D01*
X82797781Y-125789751D01*
X83003726Y-125704446D01*
X83196774Y-125592989D01*
X83373624Y-125457288D01*
X83531247Y-125299665D01*
X83666948Y-125122815D01*
X83778405Y-124929767D01*
X83818698Y-124832491D01*
X83818701Y-124832483D01*
X99754500Y-124832483D01*
X99754500Y-126282501D01*
X99754501Y-126282518D01*
X99765000Y-126385296D01*
X99765001Y-126385299D01*
X99798418Y-126486144D01*
X99820186Y-126551834D01*
X99912288Y-126701156D01*
X100036344Y-126825212D01*
X100185666Y-126917314D01*
X100352203Y-126972499D01*
X100454991Y-126983000D01*
X101905008Y-126982999D01*
X102007797Y-126972499D01*
X102174334Y-126917314D01*
X102323656Y-126825212D01*
X102447712Y-126701156D01*
X102539814Y-126551834D01*
X102594999Y-126385297D01*
X102605500Y-126282509D01*
X102605499Y-125445305D01*
X114994500Y-125445305D01*
X114994500Y-125669694D01*
X115029599Y-125891305D01*
X115098938Y-126104706D01*
X115168992Y-126242192D01*
X115189534Y-126282509D01*
X115200805Y-126304628D01*
X115332683Y-126486144D01*
X115332687Y-126486149D01*
X115491350Y-126644812D01*
X115491355Y-126644816D01*
X115649683Y-126759847D01*
X115672875Y-126776697D01*
X115768087Y-126825210D01*
X115872793Y-126878561D01*
X115872795Y-126878561D01*
X115872798Y-126878563D01*
X115987184Y-126915729D01*
X116086194Y-126947900D01*
X116307806Y-126983000D01*
X116307811Y-126983000D01*
X116532194Y-126983000D01*
X116753805Y-126947900D01*
X116967202Y-126878563D01*
X117167125Y-126776697D01*
X117348651Y-126644811D01*
X117507311Y-126486151D01*
X117639197Y-126304625D01*
X117741063Y-126104702D01*
X117810400Y-125891305D01*
X117812739Y-125876539D01*
X117845500Y-125669694D01*
X117845500Y-125445305D01*
X117810400Y-125223694D01*
X117741061Y-125010293D01*
X117700028Y-124929763D01*
X117639197Y-124810375D01*
X117580586Y-124729703D01*
X117507316Y-124628855D01*
X117507312Y-124628850D01*
X117348649Y-124470187D01*
X117348644Y-124470183D01*
X117167128Y-124338305D01*
X117167127Y-124338304D01*
X117167125Y-124338303D01*
X117104692Y-124306492D01*
X116967206Y-124236438D01*
X116753805Y-124167099D01*
X116532194Y-124132000D01*
X116532189Y-124132000D01*
X116307811Y-124132000D01*
X116307806Y-124132000D01*
X116086194Y-124167099D01*
X115872793Y-124236438D01*
X115672871Y-124338305D01*
X115491355Y-124470183D01*
X115491350Y-124470187D01*
X115332687Y-124628850D01*
X115332683Y-124628855D01*
X115200805Y-124810371D01*
X115098938Y-125010293D01*
X115029599Y-125223694D01*
X114994500Y-125445305D01*
X102605499Y-125445305D01*
X102605499Y-124832492D01*
X102594999Y-124729703D01*
X102539814Y-124563166D01*
X102447712Y-124413844D01*
X102323656Y-124289788D01*
X102174334Y-124197686D01*
X102007797Y-124142501D01*
X102007795Y-124142500D01*
X101905010Y-124132000D01*
X100454998Y-124132000D01*
X100454981Y-124132001D01*
X100352203Y-124142500D01*
X100352200Y-124142501D01*
X100185668Y-124197685D01*
X100185663Y-124197687D01*
X100036342Y-124289789D01*
X99912289Y-124413842D01*
X99820187Y-124563163D01*
X99820186Y-124563166D01*
X99765001Y-124729703D01*
X99765001Y-124729704D01*
X99765000Y-124729704D01*
X99754500Y-124832483D01*
X83818701Y-124832483D01*
X83839662Y-124781881D01*
X83839662Y-124781879D01*
X83863704Y-124723837D01*
X83863706Y-124723831D01*
X83863710Y-124723822D01*
X83921404Y-124508504D01*
X83950500Y-124287498D01*
X83950500Y-124064584D01*
X83921404Y-123843578D01*
X83863710Y-123628260D01*
X83778405Y-123422315D01*
X83666948Y-123229267D01*
X83531247Y-123052417D01*
X83531242Y-123052411D01*
X83373629Y-122894798D01*
X83373622Y-122894792D01*
X83196782Y-122759099D01*
X83196780Y-122759098D01*
X83196774Y-122759093D01*
X83003726Y-122647636D01*
X83003722Y-122647634D01*
X82797790Y-122562334D01*
X82797783Y-122562332D01*
X82797781Y-122562331D01*
X82582463Y-122504637D01*
X82582457Y-122504636D01*
X82582452Y-122504635D01*
X82361466Y-122475542D01*
X82361463Y-122475541D01*
X82361457Y-122475541D01*
X82138543Y-122475541D01*
X82138537Y-122475541D01*
X82138533Y-122475542D01*
X81917547Y-122504635D01*
X81917540Y-122504636D01*
X81917537Y-122504637D01*
X81702219Y-122562331D01*
X81702209Y-122562334D01*
X81496277Y-122647634D01*
X81496273Y-122647636D01*
X81303226Y-122759093D01*
X81303217Y-122759099D01*
X81126377Y-122894792D01*
X81126370Y-122894798D01*
X80968757Y-123052411D01*
X80968751Y-123052418D01*
X80833058Y-123229258D01*
X80833052Y-123229267D01*
X80721595Y-123422314D01*
X80721593Y-123422318D01*
X80636293Y-123628250D01*
X80636290Y-123628260D01*
X80587486Y-123810402D01*
X80578597Y-123843575D01*
X80578594Y-123843588D01*
X80549501Y-124064574D01*
X80549500Y-124064590D01*
X68899886Y-124064590D01*
X68900000Y-124064019D01*
X68900000Y-123935981D01*
X68875021Y-123810402D01*
X68850001Y-123750000D01*
X70049999Y-123750000D01*
X70049999Y-122900028D01*
X70049998Y-122900013D01*
X70039505Y-122797302D01*
X69984358Y-122630880D01*
X69984356Y-122630875D01*
X69892315Y-122481654D01*
X69768345Y-122357684D01*
X69619124Y-122265643D01*
X69619119Y-122265641D01*
X69452697Y-122210494D01*
X69452690Y-122210493D01*
X69349986Y-122200000D01*
X68500000Y-122200000D01*
X68500000Y-123399998D01*
X68439598Y-123374979D01*
X68314019Y-123350000D01*
X68185981Y-123350000D01*
X68060402Y-123374979D01*
X68000000Y-123399998D01*
X68000000Y-122200000D01*
X67150028Y-122200000D01*
X67150012Y-122200001D01*
X67047302Y-122210494D01*
X66880880Y-122265641D01*
X66880875Y-122265643D01*
X66731654Y-122357684D01*
X66607684Y-122481654D01*
X66515643Y-122630875D01*
X66515641Y-122630880D01*
X66460494Y-122797302D01*
X66460493Y-122797309D01*
X66450000Y-122900013D01*
X55000500Y-122900013D01*
X55000500Y-116581995D01*
X65949500Y-116581995D01*
X65949500Y-116818004D01*
X65949501Y-116818020D01*
X65969034Y-116966392D01*
X65980307Y-117052014D01*
X66012268Y-117171292D01*
X66041394Y-117279993D01*
X66131714Y-117498045D01*
X66131719Y-117498056D01*
X66192710Y-117603694D01*
X66249727Y-117702450D01*
X66249729Y-117702453D01*
X66249730Y-117702454D01*
X66393406Y-117889697D01*
X66393412Y-117889704D01*
X66560295Y-118056587D01*
X66560302Y-118056593D01*
X66583638Y-118074499D01*
X66747550Y-118200273D01*
X66870380Y-118271189D01*
X66951943Y-118318280D01*
X66951948Y-118318282D01*
X66951951Y-118318284D01*
X67170007Y-118408606D01*
X67397986Y-118469693D01*
X67631989Y-118500500D01*
X67631996Y-118500500D01*
X67868004Y-118500500D01*
X67868011Y-118500500D01*
X68102014Y-118469693D01*
X68329993Y-118408606D01*
X68548049Y-118318284D01*
X68752450Y-118200273D01*
X68784051Y-118176025D01*
X80549500Y-118176025D01*
X80549500Y-120176056D01*
X80560000Y-120278836D01*
X80560001Y-120278837D01*
X80615186Y-120445376D01*
X80615187Y-120445378D01*
X80707286Y-120594692D01*
X80707289Y-120594696D01*
X80831344Y-120718751D01*
X80831348Y-120718754D01*
X80980662Y-120810853D01*
X80980664Y-120810854D01*
X80980666Y-120810855D01*
X81147203Y-120866040D01*
X81249992Y-120876541D01*
X81249997Y-120876541D01*
X83250003Y-120876541D01*
X83250008Y-120876541D01*
X83352797Y-120866040D01*
X83519334Y-120810855D01*
X83668655Y-120718752D01*
X83792711Y-120594696D01*
X83884814Y-120445375D01*
X83939999Y-120278838D01*
X83950500Y-120176049D01*
X83950500Y-118176033D01*
X83939999Y-118073244D01*
X83884814Y-117906707D01*
X83884812Y-117906703D01*
X83871756Y-117885536D01*
X83834605Y-117825305D01*
X99754500Y-117825305D01*
X99754500Y-118049694D01*
X99789599Y-118271305D01*
X99858938Y-118484706D01*
X99960805Y-118684628D01*
X100092683Y-118866144D01*
X100092687Y-118866149D01*
X100251350Y-119024812D01*
X100251355Y-119024816D01*
X100363735Y-119106464D01*
X100432875Y-119156697D01*
X100560264Y-119221605D01*
X100632793Y-119258561D01*
X100632795Y-119258561D01*
X100632798Y-119258563D01*
X100747184Y-119295729D01*
X100846194Y-119327900D01*
X101067806Y-119363000D01*
X101067811Y-119363000D01*
X101292194Y-119363000D01*
X101513805Y-119327900D01*
X101515313Y-119327410D01*
X101727202Y-119258563D01*
X101927125Y-119156697D01*
X102108651Y-119024811D01*
X102267311Y-118866151D01*
X102399197Y-118684625D01*
X102501063Y-118484702D01*
X102570400Y-118271305D01*
X102585489Y-118176038D01*
X102605500Y-118049694D01*
X102605500Y-117825305D01*
X107374500Y-117825305D01*
X107374500Y-118049694D01*
X107409599Y-118271305D01*
X107478938Y-118484706D01*
X107580805Y-118684628D01*
X107712683Y-118866144D01*
X107712687Y-118866149D01*
X107871350Y-119024812D01*
X107871355Y-119024816D01*
X107983735Y-119106464D01*
X108052875Y-119156697D01*
X108180264Y-119221605D01*
X108252793Y-119258561D01*
X108252795Y-119258561D01*
X108252798Y-119258563D01*
X108367184Y-119295729D01*
X108466194Y-119327900D01*
X108687806Y-119363000D01*
X108687811Y-119363000D01*
X108912194Y-119363000D01*
X109133805Y-119327900D01*
X109135313Y-119327410D01*
X109347202Y-119258563D01*
X109547125Y-119156697D01*
X109728651Y-119024811D01*
X109887311Y-118866151D01*
X110019197Y-118684625D01*
X110121063Y-118484702D01*
X110190400Y-118271305D01*
X110205489Y-118176038D01*
X110225500Y-118049694D01*
X110225500Y-117825305D01*
X112454500Y-117825305D01*
X112454500Y-118049694D01*
X112489599Y-118271305D01*
X112558938Y-118484706D01*
X112660805Y-118684628D01*
X112792683Y-118866144D01*
X112792687Y-118866149D01*
X112951350Y-119024812D01*
X112951355Y-119024816D01*
X113063735Y-119106464D01*
X113132875Y-119156697D01*
X113260264Y-119221605D01*
X113332793Y-119258561D01*
X113332795Y-119258561D01*
X113332798Y-119258563D01*
X113447184Y-119295729D01*
X113546194Y-119327900D01*
X113767806Y-119363000D01*
X113767811Y-119363000D01*
X113992194Y-119363000D01*
X114213805Y-119327900D01*
X114215313Y-119327410D01*
X114427202Y-119258563D01*
X114627125Y-119156697D01*
X114808651Y-119024811D01*
X114967311Y-118866151D01*
X114967313Y-118866147D01*
X114967316Y-118866145D01*
X115049991Y-118752352D01*
X115105320Y-118709686D01*
X115174934Y-118703707D01*
X115236729Y-118736312D01*
X115250627Y-118752352D01*
X115251033Y-118752910D01*
X115251034Y-118752911D01*
X115998274Y-118005671D01*
X116023963Y-118101544D01*
X116079916Y-118198456D01*
X116159044Y-118277584D01*
X116255956Y-118333537D01*
X116351828Y-118359225D01*
X115604587Y-119106464D01*
X115673136Y-119156268D01*
X115872989Y-119258099D01*
X115872992Y-119258100D01*
X116086310Y-119327410D01*
X116307851Y-119362500D01*
X116532149Y-119362500D01*
X116753689Y-119327410D01*
X116967007Y-119258100D01*
X116967010Y-119258099D01*
X117166862Y-119156269D01*
X117235410Y-119106464D01*
X117235411Y-119106464D01*
X116488171Y-118359225D01*
X116584044Y-118333537D01*
X116680956Y-118277584D01*
X116760084Y-118198456D01*
X116816037Y-118101544D01*
X116841725Y-118005672D01*
X117588964Y-118752911D01*
X117588964Y-118752910D01*
X117638769Y-118684362D01*
X117740599Y-118484510D01*
X117740600Y-118484507D01*
X117809910Y-118271189D01*
X117845000Y-118049649D01*
X117845000Y-117825350D01*
X117809910Y-117603810D01*
X117740600Y-117390492D01*
X117740599Y-117390489D01*
X117638768Y-117190636D01*
X117588964Y-117122088D01*
X117588964Y-117122087D01*
X116841725Y-117869327D01*
X116816037Y-117773456D01*
X116760084Y-117676544D01*
X116680956Y-117597416D01*
X116584044Y-117541463D01*
X116488172Y-117515774D01*
X117235411Y-116768534D01*
X117235410Y-116768532D01*
X117166866Y-116718733D01*
X116967010Y-116616900D01*
X116967007Y-116616899D01*
X116753689Y-116547589D01*
X116532149Y-116512500D01*
X116307851Y-116512500D01*
X116086310Y-116547589D01*
X115872992Y-116616899D01*
X115872989Y-116616900D01*
X115673140Y-116718729D01*
X115604588Y-116768534D01*
X116351828Y-117515774D01*
X116255956Y-117541463D01*
X116159044Y-117597416D01*
X116079916Y-117676544D01*
X116023963Y-117773456D01*
X115998274Y-117869327D01*
X115251034Y-117122088D01*
X115251033Y-117122088D01*
X115250627Y-117122648D01*
X115195296Y-117165313D01*
X115125683Y-117171292D01*
X115063888Y-117138686D01*
X115049991Y-117122647D01*
X114967316Y-117008855D01*
X114967312Y-117008850D01*
X114808649Y-116850187D01*
X114808644Y-116850183D01*
X114627128Y-116718305D01*
X114627127Y-116718304D01*
X114627125Y-116718303D01*
X114564692Y-116686492D01*
X114427206Y-116616438D01*
X114213805Y-116547099D01*
X113992194Y-116512000D01*
X113992189Y-116512000D01*
X113767811Y-116512000D01*
X113767806Y-116512000D01*
X113546194Y-116547099D01*
X113332793Y-116616438D01*
X113132871Y-116718305D01*
X112951355Y-116850183D01*
X112951350Y-116850187D01*
X112792687Y-117008850D01*
X112792683Y-117008855D01*
X112660805Y-117190371D01*
X112558938Y-117390293D01*
X112489599Y-117603694D01*
X112454500Y-117825305D01*
X110225500Y-117825305D01*
X110190400Y-117603694D01*
X110121061Y-117390293D01*
X110084105Y-117317764D01*
X110019197Y-117190375D01*
X109969583Y-117122087D01*
X109887316Y-117008855D01*
X109887312Y-117008850D01*
X109728649Y-116850187D01*
X109728644Y-116850183D01*
X109547128Y-116718305D01*
X109547127Y-116718304D01*
X109547125Y-116718303D01*
X109484692Y-116686492D01*
X109347206Y-116616438D01*
X109133805Y-116547099D01*
X108912194Y-116512000D01*
X108912189Y-116512000D01*
X108687811Y-116512000D01*
X108687806Y-116512000D01*
X108466194Y-116547099D01*
X108252793Y-116616438D01*
X108052871Y-116718305D01*
X107871355Y-116850183D01*
X107871350Y-116850187D01*
X107712687Y-117008850D01*
X107712683Y-117008855D01*
X107580805Y-117190371D01*
X107478938Y-117390293D01*
X107409599Y-117603694D01*
X107374500Y-117825305D01*
X102605500Y-117825305D01*
X102570400Y-117603694D01*
X102501061Y-117390293D01*
X102464105Y-117317764D01*
X102399197Y-117190375D01*
X102349583Y-117122087D01*
X102267316Y-117008855D01*
X102267312Y-117008850D01*
X102108649Y-116850187D01*
X102108644Y-116850183D01*
X101927128Y-116718305D01*
X101927127Y-116718304D01*
X101927125Y-116718303D01*
X101864692Y-116686492D01*
X101727206Y-116616438D01*
X101513805Y-116547099D01*
X101292194Y-116512000D01*
X101292189Y-116512000D01*
X101067811Y-116512000D01*
X101067806Y-116512000D01*
X100846194Y-116547099D01*
X100632793Y-116616438D01*
X100432871Y-116718305D01*
X100251355Y-116850183D01*
X100251350Y-116850187D01*
X100092687Y-117008850D01*
X100092683Y-117008855D01*
X99960805Y-117190371D01*
X99858938Y-117390293D01*
X99789599Y-117603694D01*
X99754500Y-117825305D01*
X83834605Y-117825305D01*
X83792713Y-117757389D01*
X83792710Y-117757385D01*
X83668655Y-117633330D01*
X83668651Y-117633327D01*
X83519337Y-117541228D01*
X83519335Y-117541227D01*
X83432642Y-117512500D01*
X83352797Y-117486042D01*
X83352795Y-117486041D01*
X83250015Y-117475541D01*
X83250008Y-117475541D01*
X81249992Y-117475541D01*
X81249984Y-117475541D01*
X81147204Y-117486041D01*
X81147203Y-117486042D01*
X80980664Y-117541227D01*
X80980662Y-117541228D01*
X80831348Y-117633327D01*
X80831344Y-117633330D01*
X80707289Y-117757385D01*
X80707286Y-117757389D01*
X80615187Y-117906703D01*
X80615186Y-117906705D01*
X80560001Y-118073244D01*
X80560000Y-118073245D01*
X80549500Y-118176025D01*
X68784051Y-118176025D01*
X68939699Y-118056592D01*
X69106592Y-117889699D01*
X69250273Y-117702450D01*
X69368284Y-117498049D01*
X69458606Y-117279993D01*
X69519693Y-117052014D01*
X69550500Y-116818011D01*
X69550500Y-116581989D01*
X69519693Y-116347986D01*
X69458606Y-116120007D01*
X69368284Y-115901951D01*
X69368282Y-115901948D01*
X69368280Y-115901943D01*
X69326118Y-115828918D01*
X69250273Y-115697550D01*
X69106592Y-115510301D01*
X69106587Y-115510295D01*
X68939704Y-115343412D01*
X68939697Y-115343406D01*
X68752454Y-115199730D01*
X68752453Y-115199729D01*
X68752450Y-115199727D01*
X68670957Y-115152677D01*
X68548056Y-115081719D01*
X68548045Y-115081714D01*
X68329993Y-114991394D01*
X68102010Y-114930306D01*
X67868020Y-114899501D01*
X67868017Y-114899500D01*
X67868011Y-114899500D01*
X67631989Y-114899500D01*
X67631983Y-114899500D01*
X67631979Y-114899501D01*
X67397989Y-114930306D01*
X67170006Y-114991394D01*
X66951954Y-115081714D01*
X66951943Y-115081719D01*
X66747545Y-115199730D01*
X66560302Y-115343406D01*
X66560295Y-115343412D01*
X66393412Y-115510295D01*
X66393406Y-115510302D01*
X66249730Y-115697545D01*
X66131719Y-115901943D01*
X66131714Y-115901954D01*
X66041394Y-116120006D01*
X65980306Y-116347989D01*
X65949501Y-116581979D01*
X65949500Y-116581995D01*
X55000500Y-116581995D01*
X55000500Y-110121745D01*
X55020185Y-110054706D01*
X55072989Y-110008951D01*
X55124046Y-109997747D01*
X64534008Y-109963776D01*
X64601118Y-109983218D01*
X64647064Y-110035857D01*
X64657257Y-110104979D01*
X64628461Y-110168639D01*
X64569820Y-110206625D01*
X64550642Y-110210714D01*
X64398085Y-110230799D01*
X64170162Y-110291870D01*
X63952180Y-110382160D01*
X63952171Y-110382165D01*
X63747828Y-110500144D01*
X63747818Y-110500150D01*
X63666275Y-110562720D01*
X63666275Y-110562721D01*
X64387706Y-111284152D01*
X64371058Y-111291049D01*
X64240030Y-111378599D01*
X64128599Y-111490030D01*
X64041049Y-111621058D01*
X64034152Y-111637706D01*
X63312721Y-110916275D01*
X63312720Y-110916275D01*
X63250150Y-110997818D01*
X63250144Y-110997828D01*
X63132165Y-111202171D01*
X63132160Y-111202180D01*
X63041870Y-111420162D01*
X62980799Y-111648085D01*
X62950000Y-111882014D01*
X62950000Y-112117985D01*
X62980799Y-112351914D01*
X63041870Y-112579837D01*
X63132160Y-112797819D01*
X63132165Y-112797828D01*
X63250144Y-113002171D01*
X63250145Y-113002172D01*
X63312721Y-113083723D01*
X64034152Y-112362292D01*
X64041049Y-112378942D01*
X64128599Y-112509970D01*
X64240030Y-112621401D01*
X64371058Y-112708951D01*
X64387706Y-112715846D01*
X63666275Y-113437277D01*
X63747827Y-113499854D01*
X63747828Y-113499855D01*
X63952171Y-113617834D01*
X63952180Y-113617839D01*
X64170163Y-113708129D01*
X64170161Y-113708129D01*
X64398085Y-113769200D01*
X64632014Y-113799999D01*
X64632029Y-113800000D01*
X64867971Y-113800000D01*
X64867985Y-113799999D01*
X65101914Y-113769200D01*
X65329837Y-113708129D01*
X65547819Y-113617839D01*
X65547828Y-113617834D01*
X65752181Y-113499850D01*
X65833723Y-113437279D01*
X65833723Y-113437276D01*
X65112293Y-112715847D01*
X65128942Y-112708951D01*
X65259970Y-112621401D01*
X65371401Y-112509970D01*
X65458951Y-112378942D01*
X65465846Y-112362293D01*
X66187276Y-113083723D01*
X66187279Y-113083723D01*
X66249850Y-113002181D01*
X66367834Y-112797828D01*
X66367839Y-112797819D01*
X66458129Y-112579837D01*
X66519200Y-112351914D01*
X66549999Y-112117985D01*
X66550000Y-112117971D01*
X66550000Y-111882028D01*
X66549999Y-111882014D01*
X66519200Y-111648085D01*
X66458129Y-111420162D01*
X66367839Y-111202180D01*
X66367834Y-111202171D01*
X66249855Y-110997828D01*
X66249854Y-110997827D01*
X66187277Y-110916275D01*
X65465846Y-111637705D01*
X65458951Y-111621058D01*
X65371401Y-111490030D01*
X65259970Y-111378599D01*
X65128942Y-111291049D01*
X65112293Y-111284152D01*
X65744309Y-110652135D01*
X68949500Y-110652135D01*
X68949500Y-113347870D01*
X68949501Y-113347876D01*
X68955908Y-113407483D01*
X69006202Y-113542328D01*
X69006206Y-113542335D01*
X69092452Y-113657544D01*
X69092455Y-113657547D01*
X69207664Y-113743793D01*
X69207671Y-113743797D01*
X69342517Y-113794091D01*
X69342516Y-113794091D01*
X69349444Y-113794835D01*
X69402127Y-113800500D01*
X72097872Y-113800499D01*
X72157483Y-113794091D01*
X72292331Y-113743796D01*
X72407546Y-113657546D01*
X72493796Y-113542331D01*
X72544091Y-113407483D01*
X72550500Y-113347873D01*
X72550499Y-110652128D01*
X72544091Y-110592517D01*
X72532977Y-110562720D01*
X72493797Y-110457671D01*
X72493793Y-110457664D01*
X72407547Y-110342455D01*
X72407544Y-110342452D01*
X72292335Y-110256206D01*
X72292328Y-110256202D01*
X72157482Y-110205908D01*
X72157483Y-110205908D01*
X72097883Y-110199501D01*
X72097881Y-110199500D01*
X72097873Y-110199500D01*
X72097864Y-110199500D01*
X69402129Y-110199500D01*
X69402123Y-110199501D01*
X69342516Y-110205908D01*
X69207671Y-110256202D01*
X69207664Y-110256206D01*
X69092455Y-110342452D01*
X69092452Y-110342455D01*
X69006206Y-110457664D01*
X69006202Y-110457671D01*
X68955908Y-110592517D01*
X68949501Y-110652116D01*
X68949501Y-110652123D01*
X68949500Y-110652135D01*
X65744309Y-110652135D01*
X65833723Y-110562721D01*
X65752172Y-110500145D01*
X65752171Y-110500144D01*
X65547828Y-110382165D01*
X65547819Y-110382160D01*
X65329836Y-110291870D01*
X65329838Y-110291870D01*
X65101914Y-110230799D01*
X64937852Y-110209199D01*
X64873956Y-110180932D01*
X64835485Y-110122608D01*
X64834654Y-110052743D01*
X64871726Y-109993520D01*
X64934932Y-109963741D01*
X64953584Y-109962261D01*
X123625552Y-109750449D01*
X123692662Y-109769891D01*
G37*
%TD.AperFunction*%
%TD*%
M02*
