%TF.GenerationSoftware,KiCad,Pcbnew,9.0.7*%
%TF.CreationDate,2026-02-23T18:35:15-05:00*%
%TF.ProjectId,power_supply,706f7765-725f-4737-9570-706c792e6b69,rev?*%
%TF.SameCoordinates,Original*%
%TF.FileFunction,Legend,Top*%
%TF.FilePolarity,Positive*%
%FSLAX46Y46*%
G04 Gerber Fmt 4.6, Leading zero omitted, Abs format (unit mm)*
G04 Created by KiCad (PCBNEW 9.0.7) date 2026-02-23 18:35:15*
%MOMM*%
%LPD*%
G01*
G04 APERTURE LIST*
%ADD10C,0.100000*%
%ADD11C,0.150000*%
%ADD12C,0.120000*%
G04 APERTURE END LIST*
D10*
X213338972Y-93877580D02*
X213005639Y-92877580D01*
X213005639Y-92877580D02*
X212672306Y-93877580D01*
X212338972Y-93258533D02*
X211577068Y-93258533D01*
X211958020Y-92877580D02*
X211958020Y-93639485D01*
X219588972Y-93877580D02*
X219255639Y-92877580D01*
X219255639Y-92877580D02*
X218922306Y-93877580D01*
X218588972Y-93258533D02*
X217827068Y-93258533D01*
X125553884Y-110771578D02*
X126315789Y-110771578D01*
X125934836Y-111152531D02*
X125934836Y-110390626D01*
X126791979Y-110771578D02*
X127553884Y-110771578D01*
X129315788Y-111152531D02*
X128744360Y-111152531D01*
X129030074Y-111152531D02*
X129030074Y-110152531D01*
X129030074Y-110152531D02*
X128934836Y-110295388D01*
X128934836Y-110295388D02*
X128839598Y-110390626D01*
X128839598Y-110390626D02*
X128744360Y-110438245D01*
X129696741Y-110247769D02*
X129744360Y-110200150D01*
X129744360Y-110200150D02*
X129839598Y-110152531D01*
X129839598Y-110152531D02*
X130077693Y-110152531D01*
X130077693Y-110152531D02*
X130172931Y-110200150D01*
X130172931Y-110200150D02*
X130220550Y-110247769D01*
X130220550Y-110247769D02*
X130268169Y-110343007D01*
X130268169Y-110343007D02*
X130268169Y-110438245D01*
X130268169Y-110438245D02*
X130220550Y-110581102D01*
X130220550Y-110581102D02*
X129649122Y-111152531D01*
X129649122Y-111152531D02*
X130268169Y-111152531D01*
X130553884Y-110152531D02*
X130887217Y-111152531D01*
X130887217Y-111152531D02*
X131220550Y-110152531D01*
X132315789Y-111152531D02*
X132315789Y-110152531D01*
X132315789Y-110152531D02*
X132696741Y-110152531D01*
X132696741Y-110152531D02*
X132791979Y-110200150D01*
X132791979Y-110200150D02*
X132839598Y-110247769D01*
X132839598Y-110247769D02*
X132887217Y-110343007D01*
X132887217Y-110343007D02*
X132887217Y-110485864D01*
X132887217Y-110485864D02*
X132839598Y-110581102D01*
X132839598Y-110581102D02*
X132791979Y-110628721D01*
X132791979Y-110628721D02*
X132696741Y-110676340D01*
X132696741Y-110676340D02*
X132315789Y-110676340D01*
X133458646Y-111152531D02*
X133363408Y-111104912D01*
X133363408Y-111104912D02*
X133315789Y-111057292D01*
X133315789Y-111057292D02*
X133268170Y-110962054D01*
X133268170Y-110962054D02*
X133268170Y-110676340D01*
X133268170Y-110676340D02*
X133315789Y-110581102D01*
X133315789Y-110581102D02*
X133363408Y-110533483D01*
X133363408Y-110533483D02*
X133458646Y-110485864D01*
X133458646Y-110485864D02*
X133601503Y-110485864D01*
X133601503Y-110485864D02*
X133696741Y-110533483D01*
X133696741Y-110533483D02*
X133744360Y-110581102D01*
X133744360Y-110581102D02*
X133791979Y-110676340D01*
X133791979Y-110676340D02*
X133791979Y-110962054D01*
X133791979Y-110962054D02*
X133744360Y-111057292D01*
X133744360Y-111057292D02*
X133696741Y-111104912D01*
X133696741Y-111104912D02*
X133601503Y-111152531D01*
X133601503Y-111152531D02*
X133458646Y-111152531D01*
X134125313Y-110485864D02*
X134315789Y-111152531D01*
X134315789Y-111152531D02*
X134506265Y-110676340D01*
X134506265Y-110676340D02*
X134696741Y-111152531D01*
X134696741Y-111152531D02*
X134887217Y-110485864D01*
X135649122Y-111104912D02*
X135553884Y-111152531D01*
X135553884Y-111152531D02*
X135363408Y-111152531D01*
X135363408Y-111152531D02*
X135268170Y-111104912D01*
X135268170Y-111104912D02*
X135220551Y-111009673D01*
X135220551Y-111009673D02*
X135220551Y-110628721D01*
X135220551Y-110628721D02*
X135268170Y-110533483D01*
X135268170Y-110533483D02*
X135363408Y-110485864D01*
X135363408Y-110485864D02*
X135553884Y-110485864D01*
X135553884Y-110485864D02*
X135649122Y-110533483D01*
X135649122Y-110533483D02*
X135696741Y-110628721D01*
X135696741Y-110628721D02*
X135696741Y-110723959D01*
X135696741Y-110723959D02*
X135220551Y-110819197D01*
X136125313Y-111152531D02*
X136125313Y-110485864D01*
X136125313Y-110676340D02*
X136172932Y-110581102D01*
X136172932Y-110581102D02*
X136220551Y-110533483D01*
X136220551Y-110533483D02*
X136315789Y-110485864D01*
X136315789Y-110485864D02*
X136411027Y-110485864D01*
X137458647Y-111104912D02*
X137601504Y-111152531D01*
X137601504Y-111152531D02*
X137839599Y-111152531D01*
X137839599Y-111152531D02*
X137934837Y-111104912D01*
X137934837Y-111104912D02*
X137982456Y-111057292D01*
X137982456Y-111057292D02*
X138030075Y-110962054D01*
X138030075Y-110962054D02*
X138030075Y-110866816D01*
X138030075Y-110866816D02*
X137982456Y-110771578D01*
X137982456Y-110771578D02*
X137934837Y-110723959D01*
X137934837Y-110723959D02*
X137839599Y-110676340D01*
X137839599Y-110676340D02*
X137649123Y-110628721D01*
X137649123Y-110628721D02*
X137553885Y-110581102D01*
X137553885Y-110581102D02*
X137506266Y-110533483D01*
X137506266Y-110533483D02*
X137458647Y-110438245D01*
X137458647Y-110438245D02*
X137458647Y-110343007D01*
X137458647Y-110343007D02*
X137506266Y-110247769D01*
X137506266Y-110247769D02*
X137553885Y-110200150D01*
X137553885Y-110200150D02*
X137649123Y-110152531D01*
X137649123Y-110152531D02*
X137887218Y-110152531D01*
X137887218Y-110152531D02*
X138030075Y-110200150D01*
X138887218Y-110485864D02*
X138887218Y-111152531D01*
X138458647Y-110485864D02*
X138458647Y-111009673D01*
X138458647Y-111009673D02*
X138506266Y-111104912D01*
X138506266Y-111104912D02*
X138601504Y-111152531D01*
X138601504Y-111152531D02*
X138744361Y-111152531D01*
X138744361Y-111152531D02*
X138839599Y-111104912D01*
X138839599Y-111104912D02*
X138887218Y-111057292D01*
X139363409Y-110485864D02*
X139363409Y-111485864D01*
X139363409Y-110533483D02*
X139458647Y-110485864D01*
X139458647Y-110485864D02*
X139649123Y-110485864D01*
X139649123Y-110485864D02*
X139744361Y-110533483D01*
X139744361Y-110533483D02*
X139791980Y-110581102D01*
X139791980Y-110581102D02*
X139839599Y-110676340D01*
X139839599Y-110676340D02*
X139839599Y-110962054D01*
X139839599Y-110962054D02*
X139791980Y-111057292D01*
X139791980Y-111057292D02*
X139744361Y-111104912D01*
X139744361Y-111104912D02*
X139649123Y-111152531D01*
X139649123Y-111152531D02*
X139458647Y-111152531D01*
X139458647Y-111152531D02*
X139363409Y-111104912D01*
X140268171Y-110485864D02*
X140268171Y-111485864D01*
X140268171Y-110533483D02*
X140363409Y-110485864D01*
X140363409Y-110485864D02*
X140553885Y-110485864D01*
X140553885Y-110485864D02*
X140649123Y-110533483D01*
X140649123Y-110533483D02*
X140696742Y-110581102D01*
X140696742Y-110581102D02*
X140744361Y-110676340D01*
X140744361Y-110676340D02*
X140744361Y-110962054D01*
X140744361Y-110962054D02*
X140696742Y-111057292D01*
X140696742Y-111057292D02*
X140649123Y-111104912D01*
X140649123Y-111104912D02*
X140553885Y-111152531D01*
X140553885Y-111152531D02*
X140363409Y-111152531D01*
X140363409Y-111152531D02*
X140268171Y-111104912D01*
X141315790Y-111152531D02*
X141220552Y-111104912D01*
X141220552Y-111104912D02*
X141172933Y-111009673D01*
X141172933Y-111009673D02*
X141172933Y-110152531D01*
X141601505Y-110485864D02*
X141839600Y-111152531D01*
X142077695Y-110485864D02*
X141839600Y-111152531D01*
X141839600Y-111152531D02*
X141744362Y-111390626D01*
X141744362Y-111390626D02*
X141696743Y-111438245D01*
X141696743Y-111438245D02*
X141601505Y-111485864D01*
X126125312Y-112762475D02*
X125791979Y-112286284D01*
X125553884Y-112762475D02*
X125553884Y-111762475D01*
X125553884Y-111762475D02*
X125934836Y-111762475D01*
X125934836Y-111762475D02*
X126030074Y-111810094D01*
X126030074Y-111810094D02*
X126077693Y-111857713D01*
X126077693Y-111857713D02*
X126125312Y-111952951D01*
X126125312Y-111952951D02*
X126125312Y-112095808D01*
X126125312Y-112095808D02*
X126077693Y-112191046D01*
X126077693Y-112191046D02*
X126030074Y-112238665D01*
X126030074Y-112238665D02*
X125934836Y-112286284D01*
X125934836Y-112286284D02*
X125553884Y-112286284D01*
X126982455Y-112762475D02*
X126982455Y-112238665D01*
X126982455Y-112238665D02*
X126934836Y-112143427D01*
X126934836Y-112143427D02*
X126839598Y-112095808D01*
X126839598Y-112095808D02*
X126649122Y-112095808D01*
X126649122Y-112095808D02*
X126553884Y-112143427D01*
X126982455Y-112714856D02*
X126887217Y-112762475D01*
X126887217Y-112762475D02*
X126649122Y-112762475D01*
X126649122Y-112762475D02*
X126553884Y-112714856D01*
X126553884Y-112714856D02*
X126506265Y-112619617D01*
X126506265Y-112619617D02*
X126506265Y-112524379D01*
X126506265Y-112524379D02*
X126553884Y-112429141D01*
X126553884Y-112429141D02*
X126649122Y-112381522D01*
X126649122Y-112381522D02*
X126887217Y-112381522D01*
X126887217Y-112381522D02*
X126982455Y-112333903D01*
X127315789Y-112095808D02*
X127696741Y-112095808D01*
X127458646Y-112762475D02*
X127458646Y-111905332D01*
X127458646Y-111905332D02*
X127506265Y-111810094D01*
X127506265Y-111810094D02*
X127601503Y-111762475D01*
X127601503Y-111762475D02*
X127696741Y-111762475D01*
X128458646Y-112762475D02*
X128458646Y-112238665D01*
X128458646Y-112238665D02*
X128411027Y-112143427D01*
X128411027Y-112143427D02*
X128315789Y-112095808D01*
X128315789Y-112095808D02*
X128125313Y-112095808D01*
X128125313Y-112095808D02*
X128030075Y-112143427D01*
X128458646Y-112714856D02*
X128363408Y-112762475D01*
X128363408Y-112762475D02*
X128125313Y-112762475D01*
X128125313Y-112762475D02*
X128030075Y-112714856D01*
X128030075Y-112714856D02*
X127982456Y-112619617D01*
X127982456Y-112619617D02*
X127982456Y-112524379D01*
X127982456Y-112524379D02*
X128030075Y-112429141D01*
X128030075Y-112429141D02*
X128125313Y-112381522D01*
X128125313Y-112381522D02*
X128363408Y-112381522D01*
X128363408Y-112381522D02*
X128458646Y-112333903D01*
X129315789Y-112714856D02*
X129220551Y-112762475D01*
X129220551Y-112762475D02*
X129030075Y-112762475D01*
X129030075Y-112762475D02*
X128934837Y-112714856D01*
X128934837Y-112714856D02*
X128887218Y-112619617D01*
X128887218Y-112619617D02*
X128887218Y-112238665D01*
X128887218Y-112238665D02*
X128934837Y-112143427D01*
X128934837Y-112143427D02*
X129030075Y-112095808D01*
X129030075Y-112095808D02*
X129220551Y-112095808D01*
X129220551Y-112095808D02*
X129315789Y-112143427D01*
X129315789Y-112143427D02*
X129363408Y-112238665D01*
X129363408Y-112238665D02*
X129363408Y-112333903D01*
X129363408Y-112333903D02*
X128887218Y-112429141D01*
X129934837Y-112762475D02*
X129839599Y-112714856D01*
X129839599Y-112714856D02*
X129791980Y-112619617D01*
X129791980Y-112619617D02*
X129791980Y-111762475D01*
X131553885Y-112762475D02*
X131077695Y-112762475D01*
X131077695Y-112762475D02*
X131077695Y-111762475D01*
X132315790Y-112762475D02*
X132315790Y-112238665D01*
X132315790Y-112238665D02*
X132268171Y-112143427D01*
X132268171Y-112143427D02*
X132172933Y-112095808D01*
X132172933Y-112095808D02*
X131982457Y-112095808D01*
X131982457Y-112095808D02*
X131887219Y-112143427D01*
X132315790Y-112714856D02*
X132220552Y-112762475D01*
X132220552Y-112762475D02*
X131982457Y-112762475D01*
X131982457Y-112762475D02*
X131887219Y-112714856D01*
X131887219Y-112714856D02*
X131839600Y-112619617D01*
X131839600Y-112619617D02*
X131839600Y-112524379D01*
X131839600Y-112524379D02*
X131887219Y-112429141D01*
X131887219Y-112429141D02*
X131982457Y-112381522D01*
X131982457Y-112381522D02*
X132220552Y-112381522D01*
X132220552Y-112381522D02*
X132315790Y-112333903D01*
X132791981Y-112762475D02*
X132791981Y-112095808D01*
X132791981Y-112286284D02*
X132839600Y-112191046D01*
X132839600Y-112191046D02*
X132887219Y-112143427D01*
X132887219Y-112143427D02*
X132982457Y-112095808D01*
X132982457Y-112095808D02*
X133077695Y-112095808D01*
X133363410Y-112714856D02*
X133458648Y-112762475D01*
X133458648Y-112762475D02*
X133649124Y-112762475D01*
X133649124Y-112762475D02*
X133744362Y-112714856D01*
X133744362Y-112714856D02*
X133791981Y-112619617D01*
X133791981Y-112619617D02*
X133791981Y-112571998D01*
X133791981Y-112571998D02*
X133744362Y-112476760D01*
X133744362Y-112476760D02*
X133649124Y-112429141D01*
X133649124Y-112429141D02*
X133506267Y-112429141D01*
X133506267Y-112429141D02*
X133411029Y-112381522D01*
X133411029Y-112381522D02*
X133363410Y-112286284D01*
X133363410Y-112286284D02*
X133363410Y-112238665D01*
X133363410Y-112238665D02*
X133411029Y-112143427D01*
X133411029Y-112143427D02*
X133506267Y-112095808D01*
X133506267Y-112095808D02*
X133649124Y-112095808D01*
X133649124Y-112095808D02*
X133744362Y-112143427D01*
X134601505Y-112714856D02*
X134506267Y-112762475D01*
X134506267Y-112762475D02*
X134315791Y-112762475D01*
X134315791Y-112762475D02*
X134220553Y-112714856D01*
X134220553Y-112714856D02*
X134172934Y-112619617D01*
X134172934Y-112619617D02*
X134172934Y-112238665D01*
X134172934Y-112238665D02*
X134220553Y-112143427D01*
X134220553Y-112143427D02*
X134315791Y-112095808D01*
X134315791Y-112095808D02*
X134506267Y-112095808D01*
X134506267Y-112095808D02*
X134601505Y-112143427D01*
X134601505Y-112143427D02*
X134649124Y-112238665D01*
X134649124Y-112238665D02*
X134649124Y-112333903D01*
X134649124Y-112333903D02*
X134172934Y-112429141D01*
X135077696Y-112095808D02*
X135077696Y-112762475D01*
X135077696Y-112191046D02*
X135125315Y-112143427D01*
X135125315Y-112143427D02*
X135220553Y-112095808D01*
X135220553Y-112095808D02*
X135363410Y-112095808D01*
X135363410Y-112095808D02*
X135458648Y-112143427D01*
X135458648Y-112143427D02*
X135506267Y-112238665D01*
X135506267Y-112238665D02*
X135506267Y-112762475D01*
X136649125Y-111762475D02*
X137315791Y-111762475D01*
X137315791Y-111762475D02*
X136649125Y-112762475D01*
X136649125Y-112762475D02*
X137315791Y-112762475D01*
X138125315Y-112762475D02*
X138125315Y-112238665D01*
X138125315Y-112238665D02*
X138077696Y-112143427D01*
X138077696Y-112143427D02*
X137982458Y-112095808D01*
X137982458Y-112095808D02*
X137791982Y-112095808D01*
X137791982Y-112095808D02*
X137696744Y-112143427D01*
X138125315Y-112714856D02*
X138030077Y-112762475D01*
X138030077Y-112762475D02*
X137791982Y-112762475D01*
X137791982Y-112762475D02*
X137696744Y-112714856D01*
X137696744Y-112714856D02*
X137649125Y-112619617D01*
X137649125Y-112619617D02*
X137649125Y-112524379D01*
X137649125Y-112524379D02*
X137696744Y-112429141D01*
X137696744Y-112429141D02*
X137791982Y-112381522D01*
X137791982Y-112381522D02*
X138030077Y-112381522D01*
X138030077Y-112381522D02*
X138125315Y-112333903D01*
X138601506Y-112762475D02*
X138601506Y-112095808D01*
X138601506Y-112286284D02*
X138649125Y-112191046D01*
X138649125Y-112191046D02*
X138696744Y-112143427D01*
X138696744Y-112143427D02*
X138791982Y-112095808D01*
X138791982Y-112095808D02*
X138887220Y-112095808D01*
X139125316Y-112095808D02*
X139649125Y-112095808D01*
X139649125Y-112095808D02*
X139125316Y-112762475D01*
X139125316Y-112762475D02*
X139649125Y-112762475D01*
X140172935Y-112762475D02*
X140077697Y-112714856D01*
X140077697Y-112714856D02*
X140030078Y-112667236D01*
X140030078Y-112667236D02*
X139982459Y-112571998D01*
X139982459Y-112571998D02*
X139982459Y-112286284D01*
X139982459Y-112286284D02*
X140030078Y-112191046D01*
X140030078Y-112191046D02*
X140077697Y-112143427D01*
X140077697Y-112143427D02*
X140172935Y-112095808D01*
X140172935Y-112095808D02*
X140315792Y-112095808D01*
X140315792Y-112095808D02*
X140411030Y-112143427D01*
X140411030Y-112143427D02*
X140458649Y-112191046D01*
X140458649Y-112191046D02*
X140506268Y-112286284D01*
X140506268Y-112286284D02*
X140506268Y-112571998D01*
X140506268Y-112571998D02*
X140458649Y-112667236D01*
X140458649Y-112667236D02*
X140411030Y-112714856D01*
X140411030Y-112714856D02*
X140315792Y-112762475D01*
X140315792Y-112762475D02*
X140172935Y-112762475D01*
X140887221Y-112714856D02*
X140982459Y-112762475D01*
X140982459Y-112762475D02*
X141172935Y-112762475D01*
X141172935Y-112762475D02*
X141268173Y-112714856D01*
X141268173Y-112714856D02*
X141315792Y-112619617D01*
X141315792Y-112619617D02*
X141315792Y-112571998D01*
X141315792Y-112571998D02*
X141268173Y-112476760D01*
X141268173Y-112476760D02*
X141172935Y-112429141D01*
X141172935Y-112429141D02*
X141030078Y-112429141D01*
X141030078Y-112429141D02*
X140934840Y-112381522D01*
X140934840Y-112381522D02*
X140887221Y-112286284D01*
X140887221Y-112286284D02*
X140887221Y-112238665D01*
X140887221Y-112238665D02*
X140934840Y-112143427D01*
X140934840Y-112143427D02*
X141030078Y-112095808D01*
X141030078Y-112095808D02*
X141172935Y-112095808D01*
X141172935Y-112095808D02*
X141268173Y-112143427D01*
X142172935Y-112762475D02*
X142172935Y-112238665D01*
X142172935Y-112238665D02*
X142125316Y-112143427D01*
X142125316Y-112143427D02*
X142030078Y-112095808D01*
X142030078Y-112095808D02*
X141839602Y-112095808D01*
X141839602Y-112095808D02*
X141744364Y-112143427D01*
X142172935Y-112714856D02*
X142077697Y-112762475D01*
X142077697Y-112762475D02*
X141839602Y-112762475D01*
X141839602Y-112762475D02*
X141744364Y-112714856D01*
X141744364Y-112714856D02*
X141696745Y-112619617D01*
X141696745Y-112619617D02*
X141696745Y-112524379D01*
X141696745Y-112524379D02*
X141744364Y-112429141D01*
X141744364Y-112429141D02*
X141839602Y-112381522D01*
X141839602Y-112381522D02*
X142077697Y-112381522D01*
X142077697Y-112381522D02*
X142172935Y-112333903D01*
X125887217Y-113848609D02*
X125553884Y-113848609D01*
X125553884Y-114372419D02*
X125553884Y-113372419D01*
X125553884Y-113372419D02*
X126030074Y-113372419D01*
X126791979Y-114324800D02*
X126696741Y-114372419D01*
X126696741Y-114372419D02*
X126506265Y-114372419D01*
X126506265Y-114372419D02*
X126411027Y-114324800D01*
X126411027Y-114324800D02*
X126363408Y-114229561D01*
X126363408Y-114229561D02*
X126363408Y-113848609D01*
X126363408Y-113848609D02*
X126411027Y-113753371D01*
X126411027Y-113753371D02*
X126506265Y-113705752D01*
X126506265Y-113705752D02*
X126696741Y-113705752D01*
X126696741Y-113705752D02*
X126791979Y-113753371D01*
X126791979Y-113753371D02*
X126839598Y-113848609D01*
X126839598Y-113848609D02*
X126839598Y-113943847D01*
X126839598Y-113943847D02*
X126363408Y-114039085D01*
X127268170Y-114372419D02*
X127268170Y-113372419D01*
X127268170Y-113753371D02*
X127363408Y-113705752D01*
X127363408Y-113705752D02*
X127553884Y-113705752D01*
X127553884Y-113705752D02*
X127649122Y-113753371D01*
X127649122Y-113753371D02*
X127696741Y-113800990D01*
X127696741Y-113800990D02*
X127744360Y-113896228D01*
X127744360Y-113896228D02*
X127744360Y-114181942D01*
X127744360Y-114181942D02*
X127696741Y-114277180D01*
X127696741Y-114277180D02*
X127649122Y-114324800D01*
X127649122Y-114324800D02*
X127553884Y-114372419D01*
X127553884Y-114372419D02*
X127363408Y-114372419D01*
X127363408Y-114372419D02*
X127268170Y-114324800D01*
X128172932Y-114277180D02*
X128220551Y-114324800D01*
X128220551Y-114324800D02*
X128172932Y-114372419D01*
X128172932Y-114372419D02*
X128125313Y-114324800D01*
X128125313Y-114324800D02*
X128172932Y-114277180D01*
X128172932Y-114277180D02*
X128172932Y-114372419D01*
X129363408Y-113467657D02*
X129411027Y-113420038D01*
X129411027Y-113420038D02*
X129506265Y-113372419D01*
X129506265Y-113372419D02*
X129744360Y-113372419D01*
X129744360Y-113372419D02*
X129839598Y-113420038D01*
X129839598Y-113420038D02*
X129887217Y-113467657D01*
X129887217Y-113467657D02*
X129934836Y-113562895D01*
X129934836Y-113562895D02*
X129934836Y-113658133D01*
X129934836Y-113658133D02*
X129887217Y-113800990D01*
X129887217Y-113800990D02*
X129315789Y-114372419D01*
X129315789Y-114372419D02*
X129934836Y-114372419D01*
X130553884Y-113372419D02*
X130649122Y-113372419D01*
X130649122Y-113372419D02*
X130744360Y-113420038D01*
X130744360Y-113420038D02*
X130791979Y-113467657D01*
X130791979Y-113467657D02*
X130839598Y-113562895D01*
X130839598Y-113562895D02*
X130887217Y-113753371D01*
X130887217Y-113753371D02*
X130887217Y-113991466D01*
X130887217Y-113991466D02*
X130839598Y-114181942D01*
X130839598Y-114181942D02*
X130791979Y-114277180D01*
X130791979Y-114277180D02*
X130744360Y-114324800D01*
X130744360Y-114324800D02*
X130649122Y-114372419D01*
X130649122Y-114372419D02*
X130553884Y-114372419D01*
X130553884Y-114372419D02*
X130458646Y-114324800D01*
X130458646Y-114324800D02*
X130411027Y-114277180D01*
X130411027Y-114277180D02*
X130363408Y-114181942D01*
X130363408Y-114181942D02*
X130315789Y-113991466D01*
X130315789Y-113991466D02*
X130315789Y-113753371D01*
X130315789Y-113753371D02*
X130363408Y-113562895D01*
X130363408Y-113562895D02*
X130411027Y-113467657D01*
X130411027Y-113467657D02*
X130458646Y-113420038D01*
X130458646Y-113420038D02*
X130553884Y-113372419D01*
X131268170Y-113467657D02*
X131315789Y-113420038D01*
X131315789Y-113420038D02*
X131411027Y-113372419D01*
X131411027Y-113372419D02*
X131649122Y-113372419D01*
X131649122Y-113372419D02*
X131744360Y-113420038D01*
X131744360Y-113420038D02*
X131791979Y-113467657D01*
X131791979Y-113467657D02*
X131839598Y-113562895D01*
X131839598Y-113562895D02*
X131839598Y-113658133D01*
X131839598Y-113658133D02*
X131791979Y-113800990D01*
X131791979Y-113800990D02*
X131220551Y-114372419D01*
X131220551Y-114372419D02*
X131839598Y-114372419D01*
X132696741Y-113372419D02*
X132506265Y-113372419D01*
X132506265Y-113372419D02*
X132411027Y-113420038D01*
X132411027Y-113420038D02*
X132363408Y-113467657D01*
X132363408Y-113467657D02*
X132268170Y-113610514D01*
X132268170Y-113610514D02*
X132220551Y-113800990D01*
X132220551Y-113800990D02*
X132220551Y-114181942D01*
X132220551Y-114181942D02*
X132268170Y-114277180D01*
X132268170Y-114277180D02*
X132315789Y-114324800D01*
X132315789Y-114324800D02*
X132411027Y-114372419D01*
X132411027Y-114372419D02*
X132601503Y-114372419D01*
X132601503Y-114372419D02*
X132696741Y-114324800D01*
X132696741Y-114324800D02*
X132744360Y-114277180D01*
X132744360Y-114277180D02*
X132791979Y-114181942D01*
X132791979Y-114181942D02*
X132791979Y-113943847D01*
X132791979Y-113943847D02*
X132744360Y-113848609D01*
X132744360Y-113848609D02*
X132696741Y-113800990D01*
X132696741Y-113800990D02*
X132601503Y-113753371D01*
X132601503Y-113753371D02*
X132411027Y-113753371D01*
X132411027Y-113753371D02*
X132315789Y-113800990D01*
X132315789Y-113800990D02*
X132268170Y-113848609D01*
X132268170Y-113848609D02*
X132220551Y-113943847D01*
X123838972Y-94127580D02*
X123505639Y-93127580D01*
X123505639Y-93127580D02*
X123172306Y-94127580D01*
X122838972Y-93508533D02*
X122077068Y-93508533D01*
X236088972Y-94127580D02*
X235755639Y-93127580D01*
X235755639Y-93127580D02*
X235422306Y-94127580D01*
X235088972Y-93508533D02*
X234327068Y-93508533D01*
X234708020Y-93127580D02*
X234708020Y-93889485D01*
X100338972Y-94127580D02*
X100005639Y-93127580D01*
X100005639Y-93127580D02*
X99672306Y-94127580D01*
X99338972Y-93508533D02*
X98577068Y-93508533D01*
X88838972Y-94127580D02*
X88505639Y-93127580D01*
X88505639Y-93127580D02*
X88172306Y-94127580D01*
X87838972Y-93508533D02*
X87077068Y-93508533D01*
X184838972Y-93877580D02*
X184505639Y-92877580D01*
X184505639Y-92877580D02*
X184172306Y-93877580D01*
X183838972Y-93258533D02*
X183077068Y-93258533D01*
X208088972Y-93877580D02*
X207755639Y-92877580D01*
X207755639Y-92877580D02*
X207422306Y-93877580D01*
X207088972Y-93258533D02*
X206327068Y-93258533D01*
X56327693Y-118372419D02*
X55756265Y-118372419D01*
X56041979Y-118372419D02*
X56041979Y-117372419D01*
X56041979Y-117372419D02*
X55946741Y-117515276D01*
X55946741Y-117515276D02*
X55851503Y-117610514D01*
X55851503Y-117610514D02*
X55756265Y-117658133D01*
X56708646Y-117467657D02*
X56756265Y-117420038D01*
X56756265Y-117420038D02*
X56851503Y-117372419D01*
X56851503Y-117372419D02*
X57089598Y-117372419D01*
X57089598Y-117372419D02*
X57184836Y-117420038D01*
X57184836Y-117420038D02*
X57232455Y-117467657D01*
X57232455Y-117467657D02*
X57280074Y-117562895D01*
X57280074Y-117562895D02*
X57280074Y-117658133D01*
X57280074Y-117658133D02*
X57232455Y-117800990D01*
X57232455Y-117800990D02*
X56661027Y-118372419D01*
X56661027Y-118372419D02*
X57280074Y-118372419D01*
X57565789Y-117372419D02*
X57899122Y-118372419D01*
X57899122Y-118372419D02*
X58232455Y-117372419D01*
X59327694Y-118372419D02*
X59327694Y-117372419D01*
X59803884Y-118372419D02*
X59803884Y-117372419D01*
X59803884Y-117372419D02*
X60375312Y-118372419D01*
X60375312Y-118372419D02*
X60375312Y-117372419D01*
X136588972Y-94127580D02*
X136255639Y-93127580D01*
X136255639Y-93127580D02*
X135922306Y-94127580D01*
X135588972Y-93508533D02*
X134827068Y-93508533D01*
X164338972Y-93877580D02*
X164005639Y-92877580D01*
X164005639Y-92877580D02*
X163672306Y-93877580D01*
X163338972Y-93258533D02*
X162577068Y-93258533D01*
X162958020Y-92877580D02*
X162958020Y-93639485D01*
X117338972Y-94127580D02*
X117005639Y-93127580D01*
X117005639Y-93127580D02*
X116672306Y-94127580D01*
X116338972Y-93508533D02*
X115577068Y-93508533D01*
X115958020Y-93127580D02*
X115958020Y-93889485D01*
X141088972Y-94127580D02*
X140755639Y-93127580D01*
X140755639Y-93127580D02*
X140422306Y-94127580D01*
X140088972Y-93508533D02*
X139327068Y-93508533D01*
X139708020Y-93127580D02*
X139708020Y-93889485D01*
X77088972Y-94127580D02*
X76755639Y-93127580D01*
X76755639Y-93127580D02*
X76422306Y-94127580D01*
X76088972Y-93508533D02*
X75327068Y-93508533D01*
X112338972Y-94127580D02*
X112005639Y-93127580D01*
X112005639Y-93127580D02*
X111672306Y-94127580D01*
X111338972Y-93508533D02*
X110577068Y-93508533D01*
X201838972Y-93877580D02*
X201505639Y-92877580D01*
X201505639Y-92877580D02*
X201172306Y-93877580D01*
X200838972Y-93258533D02*
X200077068Y-93258533D01*
X200458020Y-92877580D02*
X200458020Y-93639485D01*
X231088972Y-94127580D02*
X230755639Y-93127580D01*
X230755639Y-93127580D02*
X230422306Y-94127580D01*
X230088972Y-93508533D02*
X229327068Y-93508533D01*
X82588972Y-94127580D02*
X82255639Y-93127580D01*
X82255639Y-93127580D02*
X81922306Y-94127580D01*
X81588972Y-93508533D02*
X80827068Y-93508533D01*
X81208020Y-93127580D02*
X81208020Y-93889485D01*
X105838972Y-94127580D02*
X105505639Y-93127580D01*
X105505639Y-93127580D02*
X105172306Y-94127580D01*
X104838972Y-93508533D02*
X104077068Y-93508533D01*
X104458020Y-93127580D02*
X104458020Y-93889485D01*
X176588972Y-93877580D02*
X176255639Y-92877580D01*
X176255639Y-92877580D02*
X175922306Y-93877580D01*
X175588972Y-93258533D02*
X174827068Y-93258533D01*
X175208020Y-92877580D02*
X175208020Y-93639485D01*
X65588972Y-94127580D02*
X65255639Y-93127580D01*
X65255639Y-93127580D02*
X64922306Y-94127580D01*
X64588972Y-93508533D02*
X63827068Y-93508533D01*
X148088972Y-94127580D02*
X147755639Y-93127580D01*
X147755639Y-93127580D02*
X147422306Y-94127580D01*
X147088972Y-93508533D02*
X146327068Y-93508533D01*
X152838972Y-94127580D02*
X152505639Y-93127580D01*
X152505639Y-93127580D02*
X152172306Y-94127580D01*
X151838972Y-93508533D02*
X151077068Y-93508533D01*
X151458020Y-93127580D02*
X151458020Y-93889485D01*
X189588972Y-93877580D02*
X189255639Y-92877580D01*
X189255639Y-92877580D02*
X188922306Y-93877580D01*
X188588972Y-93258533D02*
X187827068Y-93258533D01*
X188208020Y-92877580D02*
X188208020Y-93639485D01*
X70838972Y-94127580D02*
X70505639Y-93127580D01*
X70505639Y-93127580D02*
X70172306Y-94127580D01*
X69838972Y-93508533D02*
X69077068Y-93508533D01*
X69458020Y-93127580D02*
X69458020Y-93889485D01*
X61127580Y-123161027D02*
X61127580Y-123732455D01*
X60127580Y-123446741D02*
X61127580Y-123446741D01*
X60127580Y-124208646D02*
X60175200Y-124113408D01*
X60175200Y-124113408D02*
X60222819Y-124065789D01*
X60222819Y-124065789D02*
X60318057Y-124018170D01*
X60318057Y-124018170D02*
X60603771Y-124018170D01*
X60603771Y-124018170D02*
X60699009Y-124065789D01*
X60699009Y-124065789D02*
X60746628Y-124113408D01*
X60746628Y-124113408D02*
X60794247Y-124208646D01*
X60794247Y-124208646D02*
X60794247Y-124351503D01*
X60794247Y-124351503D02*
X60746628Y-124446741D01*
X60746628Y-124446741D02*
X60699009Y-124494360D01*
X60699009Y-124494360D02*
X60603771Y-124541979D01*
X60603771Y-124541979D02*
X60318057Y-124541979D01*
X60318057Y-124541979D02*
X60222819Y-124494360D01*
X60222819Y-124494360D02*
X60175200Y-124446741D01*
X60175200Y-124446741D02*
X60127580Y-124351503D01*
X60127580Y-124351503D02*
X60127580Y-124208646D01*
X60175200Y-125684837D02*
X60127580Y-125827694D01*
X60127580Y-125827694D02*
X60127580Y-126065789D01*
X60127580Y-126065789D02*
X60175200Y-126161027D01*
X60175200Y-126161027D02*
X60222819Y-126208646D01*
X60222819Y-126208646D02*
X60318057Y-126256265D01*
X60318057Y-126256265D02*
X60413295Y-126256265D01*
X60413295Y-126256265D02*
X60508533Y-126208646D01*
X60508533Y-126208646D02*
X60556152Y-126161027D01*
X60556152Y-126161027D02*
X60603771Y-126065789D01*
X60603771Y-126065789D02*
X60651390Y-125875313D01*
X60651390Y-125875313D02*
X60699009Y-125780075D01*
X60699009Y-125780075D02*
X60746628Y-125732456D01*
X60746628Y-125732456D02*
X60841866Y-125684837D01*
X60841866Y-125684837D02*
X60937104Y-125684837D01*
X60937104Y-125684837D02*
X61032342Y-125732456D01*
X61032342Y-125732456D02*
X61079961Y-125780075D01*
X61079961Y-125780075D02*
X61127580Y-125875313D01*
X61127580Y-125875313D02*
X61127580Y-126113408D01*
X61127580Y-126113408D02*
X61079961Y-126256265D01*
X60794247Y-126589599D02*
X60127580Y-126780075D01*
X60127580Y-126780075D02*
X60603771Y-126970551D01*
X60603771Y-126970551D02*
X60127580Y-127161027D01*
X60127580Y-127161027D02*
X60794247Y-127351503D01*
X60127580Y-127732456D02*
X60794247Y-127732456D01*
X61127580Y-127732456D02*
X61079961Y-127684837D01*
X61079961Y-127684837D02*
X61032342Y-127732456D01*
X61032342Y-127732456D02*
X61079961Y-127780075D01*
X61079961Y-127780075D02*
X61127580Y-127732456D01*
X61127580Y-127732456D02*
X61032342Y-127732456D01*
X60794247Y-128065789D02*
X60794247Y-128446741D01*
X61127580Y-128208646D02*
X60270438Y-128208646D01*
X60270438Y-128208646D02*
X60175200Y-128256265D01*
X60175200Y-128256265D02*
X60127580Y-128351503D01*
X60127580Y-128351503D02*
X60127580Y-128446741D01*
X60175200Y-129208646D02*
X60127580Y-129113408D01*
X60127580Y-129113408D02*
X60127580Y-128922932D01*
X60127580Y-128922932D02*
X60175200Y-128827694D01*
X60175200Y-128827694D02*
X60222819Y-128780075D01*
X60222819Y-128780075D02*
X60318057Y-128732456D01*
X60318057Y-128732456D02*
X60603771Y-128732456D01*
X60603771Y-128732456D02*
X60699009Y-128780075D01*
X60699009Y-128780075D02*
X60746628Y-128827694D01*
X60746628Y-128827694D02*
X60794247Y-128922932D01*
X60794247Y-128922932D02*
X60794247Y-129113408D01*
X60794247Y-129113408D02*
X60746628Y-129208646D01*
X60127580Y-129637218D02*
X61127580Y-129637218D01*
X60127580Y-130065789D02*
X60651390Y-130065789D01*
X60651390Y-130065789D02*
X60746628Y-130018170D01*
X60746628Y-130018170D02*
X60794247Y-129922932D01*
X60794247Y-129922932D02*
X60794247Y-129780075D01*
X60794247Y-129780075D02*
X60746628Y-129684837D01*
X60746628Y-129684837D02*
X60699009Y-129637218D01*
X224838972Y-93877580D02*
X224505639Y-92877580D01*
X224505639Y-92877580D02*
X224172306Y-93877580D01*
X223838972Y-93258533D02*
X223077068Y-93258533D01*
X223458020Y-92877580D02*
X223458020Y-93639485D01*
X129588972Y-94127580D02*
X129255639Y-93127580D01*
X129255639Y-93127580D02*
X128922306Y-94127580D01*
X128588972Y-93508533D02*
X127827068Y-93508533D01*
X128208020Y-93127580D02*
X128208020Y-93889485D01*
X196338972Y-93877580D02*
X196005639Y-92877580D01*
X196005639Y-92877580D02*
X195672306Y-93877580D01*
X195338972Y-93258533D02*
X194577068Y-93258533D01*
X171088972Y-93877580D02*
X170755639Y-92877580D01*
X170755639Y-92877580D02*
X170422306Y-93877580D01*
X170088972Y-93258533D02*
X169327068Y-93258533D01*
X159588972Y-93877580D02*
X159255639Y-92877580D01*
X159255639Y-92877580D02*
X158922306Y-93877580D01*
X158588972Y-93258533D02*
X157827068Y-93258533D01*
X94088972Y-94127580D02*
X93755639Y-93127580D01*
X93755639Y-93127580D02*
X93422306Y-94127580D01*
X93088972Y-93508533D02*
X92327068Y-93508533D01*
X92708020Y-93127580D02*
X92708020Y-93889485D01*
D11*
X115063333Y-116289580D02*
X115015714Y-116337200D01*
X115015714Y-116337200D02*
X114872857Y-116384819D01*
X114872857Y-116384819D02*
X114777619Y-116384819D01*
X114777619Y-116384819D02*
X114634762Y-116337200D01*
X114634762Y-116337200D02*
X114539524Y-116241961D01*
X114539524Y-116241961D02*
X114491905Y-116146723D01*
X114491905Y-116146723D02*
X114444286Y-115956247D01*
X114444286Y-115956247D02*
X114444286Y-115813390D01*
X114444286Y-115813390D02*
X114491905Y-115622914D01*
X114491905Y-115622914D02*
X114539524Y-115527676D01*
X114539524Y-115527676D02*
X114634762Y-115432438D01*
X114634762Y-115432438D02*
X114777619Y-115384819D01*
X114777619Y-115384819D02*
X114872857Y-115384819D01*
X114872857Y-115384819D02*
X115015714Y-115432438D01*
X115015714Y-115432438D02*
X115063333Y-115480057D01*
X115539524Y-116384819D02*
X115730000Y-116384819D01*
X115730000Y-116384819D02*
X115825238Y-116337200D01*
X115825238Y-116337200D02*
X115872857Y-116289580D01*
X115872857Y-116289580D02*
X115968095Y-116146723D01*
X115968095Y-116146723D02*
X116015714Y-115956247D01*
X116015714Y-115956247D02*
X116015714Y-115575295D01*
X116015714Y-115575295D02*
X115968095Y-115480057D01*
X115968095Y-115480057D02*
X115920476Y-115432438D01*
X115920476Y-115432438D02*
X115825238Y-115384819D01*
X115825238Y-115384819D02*
X115634762Y-115384819D01*
X115634762Y-115384819D02*
X115539524Y-115432438D01*
X115539524Y-115432438D02*
X115491905Y-115480057D01*
X115491905Y-115480057D02*
X115444286Y-115575295D01*
X115444286Y-115575295D02*
X115444286Y-115813390D01*
X115444286Y-115813390D02*
X115491905Y-115908628D01*
X115491905Y-115908628D02*
X115539524Y-115956247D01*
X115539524Y-115956247D02*
X115634762Y-116003866D01*
X115634762Y-116003866D02*
X115825238Y-116003866D01*
X115825238Y-116003866D02*
X115920476Y-115956247D01*
X115920476Y-115956247D02*
X115968095Y-115908628D01*
X115968095Y-115908628D02*
X116015714Y-115813390D01*
X107127142Y-116289580D02*
X107079523Y-116337200D01*
X107079523Y-116337200D02*
X106936666Y-116384819D01*
X106936666Y-116384819D02*
X106841428Y-116384819D01*
X106841428Y-116384819D02*
X106698571Y-116337200D01*
X106698571Y-116337200D02*
X106603333Y-116241961D01*
X106603333Y-116241961D02*
X106555714Y-116146723D01*
X106555714Y-116146723D02*
X106508095Y-115956247D01*
X106508095Y-115956247D02*
X106508095Y-115813390D01*
X106508095Y-115813390D02*
X106555714Y-115622914D01*
X106555714Y-115622914D02*
X106603333Y-115527676D01*
X106603333Y-115527676D02*
X106698571Y-115432438D01*
X106698571Y-115432438D02*
X106841428Y-115384819D01*
X106841428Y-115384819D02*
X106936666Y-115384819D01*
X106936666Y-115384819D02*
X107079523Y-115432438D01*
X107079523Y-115432438D02*
X107127142Y-115480057D01*
X108079523Y-116384819D02*
X107508095Y-116384819D01*
X107793809Y-116384819D02*
X107793809Y-115384819D01*
X107793809Y-115384819D02*
X107698571Y-115527676D01*
X107698571Y-115527676D02*
X107603333Y-115622914D01*
X107603333Y-115622914D02*
X107508095Y-115670533D01*
X108698571Y-115384819D02*
X108793809Y-115384819D01*
X108793809Y-115384819D02*
X108889047Y-115432438D01*
X108889047Y-115432438D02*
X108936666Y-115480057D01*
X108936666Y-115480057D02*
X108984285Y-115575295D01*
X108984285Y-115575295D02*
X109031904Y-115765771D01*
X109031904Y-115765771D02*
X109031904Y-116003866D01*
X109031904Y-116003866D02*
X108984285Y-116194342D01*
X108984285Y-116194342D02*
X108936666Y-116289580D01*
X108936666Y-116289580D02*
X108889047Y-116337200D01*
X108889047Y-116337200D02*
X108793809Y-116384819D01*
X108793809Y-116384819D02*
X108698571Y-116384819D01*
X108698571Y-116384819D02*
X108603333Y-116337200D01*
X108603333Y-116337200D02*
X108555714Y-116289580D01*
X108555714Y-116289580D02*
X108508095Y-116194342D01*
X108508095Y-116194342D02*
X108460476Y-116003866D01*
X108460476Y-116003866D02*
X108460476Y-115765771D01*
X108460476Y-115765771D02*
X108508095Y-115575295D01*
X108508095Y-115575295D02*
X108555714Y-115480057D01*
X108555714Y-115480057D02*
X108603333Y-115432438D01*
X108603333Y-115432438D02*
X108698571Y-115384819D01*
X160940476Y-106274819D02*
X160940476Y-106989104D01*
X160940476Y-106989104D02*
X160892857Y-107131961D01*
X160892857Y-107131961D02*
X160797619Y-107227200D01*
X160797619Y-107227200D02*
X160654762Y-107274819D01*
X160654762Y-107274819D02*
X160559524Y-107274819D01*
X161940476Y-107274819D02*
X161369048Y-107274819D01*
X161654762Y-107274819D02*
X161654762Y-106274819D01*
X161654762Y-106274819D02*
X161559524Y-106417676D01*
X161559524Y-106417676D02*
X161464286Y-106512914D01*
X161464286Y-106512914D02*
X161369048Y-106560533D01*
X162892857Y-107274819D02*
X162321429Y-107274819D01*
X162607143Y-107274819D02*
X162607143Y-106274819D01*
X162607143Y-106274819D02*
X162511905Y-106417676D01*
X162511905Y-106417676D02*
X162416667Y-106512914D01*
X162416667Y-106512914D02*
X162321429Y-106560533D01*
X233166666Y-106274819D02*
X233166666Y-106989104D01*
X233166666Y-106989104D02*
X233119047Y-107131961D01*
X233119047Y-107131961D02*
X233023809Y-107227200D01*
X233023809Y-107227200D02*
X232880952Y-107274819D01*
X232880952Y-107274819D02*
X232785714Y-107274819D01*
X234166666Y-107274819D02*
X233595238Y-107274819D01*
X233880952Y-107274819D02*
X233880952Y-106274819D01*
X233880952Y-106274819D02*
X233785714Y-106417676D01*
X233785714Y-106417676D02*
X233690476Y-106512914D01*
X233690476Y-106512914D02*
X233595238Y-106560533D01*
X221666666Y-106274819D02*
X221666666Y-106989104D01*
X221666666Y-106989104D02*
X221619047Y-107131961D01*
X221619047Y-107131961D02*
X221523809Y-107227200D01*
X221523809Y-107227200D02*
X221380952Y-107274819D01*
X221380952Y-107274819D02*
X221285714Y-107274819D01*
X222095238Y-106370057D02*
X222142857Y-106322438D01*
X222142857Y-106322438D02*
X222238095Y-106274819D01*
X222238095Y-106274819D02*
X222476190Y-106274819D01*
X222476190Y-106274819D02*
X222571428Y-106322438D01*
X222571428Y-106322438D02*
X222619047Y-106370057D01*
X222619047Y-106370057D02*
X222666666Y-106465295D01*
X222666666Y-106465295D02*
X222666666Y-106560533D01*
X222666666Y-106560533D02*
X222619047Y-106703390D01*
X222619047Y-106703390D02*
X222047619Y-107274819D01*
X222047619Y-107274819D02*
X222666666Y-107274819D01*
X172940476Y-106352319D02*
X172940476Y-107066604D01*
X172940476Y-107066604D02*
X172892857Y-107209461D01*
X172892857Y-107209461D02*
X172797619Y-107304700D01*
X172797619Y-107304700D02*
X172654762Y-107352319D01*
X172654762Y-107352319D02*
X172559524Y-107352319D01*
X173940476Y-107352319D02*
X173369048Y-107352319D01*
X173654762Y-107352319D02*
X173654762Y-106352319D01*
X173654762Y-106352319D02*
X173559524Y-106495176D01*
X173559524Y-106495176D02*
X173464286Y-106590414D01*
X173464286Y-106590414D02*
X173369048Y-106638033D01*
X174797619Y-106685652D02*
X174797619Y-107352319D01*
X174559524Y-106304700D02*
X174321429Y-107018985D01*
X174321429Y-107018985D02*
X174940476Y-107018985D01*
X90916666Y-106274819D02*
X90916666Y-106989104D01*
X90916666Y-106989104D02*
X90869047Y-107131961D01*
X90869047Y-107131961D02*
X90773809Y-107227200D01*
X90773809Y-107227200D02*
X90630952Y-107274819D01*
X90630952Y-107274819D02*
X90535714Y-107274819D01*
X91821428Y-106608152D02*
X91821428Y-107274819D01*
X91583333Y-106227200D02*
X91345238Y-106941485D01*
X91345238Y-106941485D02*
X91964285Y-106941485D01*
X114416666Y-106352319D02*
X114416666Y-107066604D01*
X114416666Y-107066604D02*
X114369047Y-107209461D01*
X114369047Y-107209461D02*
X114273809Y-107304700D01*
X114273809Y-107304700D02*
X114130952Y-107352319D01*
X114130952Y-107352319D02*
X114035714Y-107352319D01*
X115321428Y-106352319D02*
X115130952Y-106352319D01*
X115130952Y-106352319D02*
X115035714Y-106399938D01*
X115035714Y-106399938D02*
X114988095Y-106447557D01*
X114988095Y-106447557D02*
X114892857Y-106590414D01*
X114892857Y-106590414D02*
X114845238Y-106780890D01*
X114845238Y-106780890D02*
X114845238Y-107161842D01*
X114845238Y-107161842D02*
X114892857Y-107257080D01*
X114892857Y-107257080D02*
X114940476Y-107304700D01*
X114940476Y-107304700D02*
X115035714Y-107352319D01*
X115035714Y-107352319D02*
X115226190Y-107352319D01*
X115226190Y-107352319D02*
X115321428Y-107304700D01*
X115321428Y-107304700D02*
X115369047Y-107257080D01*
X115369047Y-107257080D02*
X115416666Y-107161842D01*
X115416666Y-107161842D02*
X115416666Y-106923747D01*
X115416666Y-106923747D02*
X115369047Y-106828509D01*
X115369047Y-106828509D02*
X115321428Y-106780890D01*
X115321428Y-106780890D02*
X115226190Y-106733271D01*
X115226190Y-106733271D02*
X115035714Y-106733271D01*
X115035714Y-106733271D02*
X114940476Y-106780890D01*
X114940476Y-106780890D02*
X114892857Y-106828509D01*
X114892857Y-106828509D02*
X114845238Y-106923747D01*
X126416666Y-106352319D02*
X126416666Y-107066604D01*
X126416666Y-107066604D02*
X126369047Y-107209461D01*
X126369047Y-107209461D02*
X126273809Y-107304700D01*
X126273809Y-107304700D02*
X126130952Y-107352319D01*
X126130952Y-107352319D02*
X126035714Y-107352319D01*
X126797619Y-106352319D02*
X127464285Y-106352319D01*
X127464285Y-106352319D02*
X127035714Y-107352319D01*
X74024819Y-127309523D02*
X74739104Y-127309523D01*
X74739104Y-127309523D02*
X74881961Y-127357142D01*
X74881961Y-127357142D02*
X74977200Y-127452380D01*
X74977200Y-127452380D02*
X75024819Y-127595237D01*
X75024819Y-127595237D02*
X75024819Y-127690475D01*
X75024819Y-126309523D02*
X75024819Y-126880951D01*
X75024819Y-126595237D02*
X74024819Y-126595237D01*
X74024819Y-126595237D02*
X74167676Y-126690475D01*
X74167676Y-126690475D02*
X74262914Y-126785713D01*
X74262914Y-126785713D02*
X74310533Y-126880951D01*
X74024819Y-125452380D02*
X74024819Y-125642856D01*
X74024819Y-125642856D02*
X74072438Y-125738094D01*
X74072438Y-125738094D02*
X74120057Y-125785713D01*
X74120057Y-125785713D02*
X74262914Y-125880951D01*
X74262914Y-125880951D02*
X74453390Y-125928570D01*
X74453390Y-125928570D02*
X74834342Y-125928570D01*
X74834342Y-125928570D02*
X74929580Y-125880951D01*
X74929580Y-125880951D02*
X74977200Y-125833332D01*
X74977200Y-125833332D02*
X75024819Y-125738094D01*
X75024819Y-125738094D02*
X75024819Y-125547618D01*
X75024819Y-125547618D02*
X74977200Y-125452380D01*
X74977200Y-125452380D02*
X74929580Y-125404761D01*
X74929580Y-125404761D02*
X74834342Y-125357142D01*
X74834342Y-125357142D02*
X74596247Y-125357142D01*
X74596247Y-125357142D02*
X74501009Y-125404761D01*
X74501009Y-125404761D02*
X74453390Y-125452380D01*
X74453390Y-125452380D02*
X74405771Y-125547618D01*
X74405771Y-125547618D02*
X74405771Y-125738094D01*
X74405771Y-125738094D02*
X74453390Y-125833332D01*
X74453390Y-125833332D02*
X74501009Y-125880951D01*
X74501009Y-125880951D02*
X74596247Y-125928570D01*
X73440476Y-109704819D02*
X73440476Y-110419104D01*
X73440476Y-110419104D02*
X73392857Y-110561961D01*
X73392857Y-110561961D02*
X73297619Y-110657200D01*
X73297619Y-110657200D02*
X73154762Y-110704819D01*
X73154762Y-110704819D02*
X73059524Y-110704819D01*
X74440476Y-110704819D02*
X73869048Y-110704819D01*
X74154762Y-110704819D02*
X74154762Y-109704819D01*
X74154762Y-109704819D02*
X74059524Y-109847676D01*
X74059524Y-109847676D02*
X73964286Y-109942914D01*
X73964286Y-109942914D02*
X73869048Y-109990533D01*
X74773810Y-109704819D02*
X75440476Y-109704819D01*
X75440476Y-109704819D02*
X75011905Y-110704819D01*
X107035713Y-131752438D02*
X106940475Y-131704819D01*
X106940475Y-131704819D02*
X106797618Y-131704819D01*
X106797618Y-131704819D02*
X106654761Y-131752438D01*
X106654761Y-131752438D02*
X106559523Y-131847676D01*
X106559523Y-131847676D02*
X106511904Y-131942914D01*
X106511904Y-131942914D02*
X106464285Y-132133390D01*
X106464285Y-132133390D02*
X106464285Y-132276247D01*
X106464285Y-132276247D02*
X106511904Y-132466723D01*
X106511904Y-132466723D02*
X106559523Y-132561961D01*
X106559523Y-132561961D02*
X106654761Y-132657200D01*
X106654761Y-132657200D02*
X106797618Y-132704819D01*
X106797618Y-132704819D02*
X106892856Y-132704819D01*
X106892856Y-132704819D02*
X107035713Y-132657200D01*
X107035713Y-132657200D02*
X107083332Y-132609580D01*
X107083332Y-132609580D02*
X107083332Y-132276247D01*
X107083332Y-132276247D02*
X106892856Y-132276247D01*
X107511904Y-132704819D02*
X107511904Y-132038152D01*
X107511904Y-132228628D02*
X107559523Y-132133390D01*
X107559523Y-132133390D02*
X107607142Y-132085771D01*
X107607142Y-132085771D02*
X107702380Y-132038152D01*
X107702380Y-132038152D02*
X107797618Y-132038152D01*
X108273809Y-132704819D02*
X108178571Y-132657200D01*
X108178571Y-132657200D02*
X108130952Y-132609580D01*
X108130952Y-132609580D02*
X108083333Y-132514342D01*
X108083333Y-132514342D02*
X108083333Y-132228628D01*
X108083333Y-132228628D02*
X108130952Y-132133390D01*
X108130952Y-132133390D02*
X108178571Y-132085771D01*
X108178571Y-132085771D02*
X108273809Y-132038152D01*
X108273809Y-132038152D02*
X108416666Y-132038152D01*
X108416666Y-132038152D02*
X108511904Y-132085771D01*
X108511904Y-132085771D02*
X108559523Y-132133390D01*
X108559523Y-132133390D02*
X108607142Y-132228628D01*
X108607142Y-132228628D02*
X108607142Y-132514342D01*
X108607142Y-132514342D02*
X108559523Y-132609580D01*
X108559523Y-132609580D02*
X108511904Y-132657200D01*
X108511904Y-132657200D02*
X108416666Y-132704819D01*
X108416666Y-132704819D02*
X108273809Y-132704819D01*
X109464285Y-132038152D02*
X109464285Y-132704819D01*
X109035714Y-132038152D02*
X109035714Y-132561961D01*
X109035714Y-132561961D02*
X109083333Y-132657200D01*
X109083333Y-132657200D02*
X109178571Y-132704819D01*
X109178571Y-132704819D02*
X109321428Y-132704819D01*
X109321428Y-132704819D02*
X109416666Y-132657200D01*
X109416666Y-132657200D02*
X109464285Y-132609580D01*
X109940476Y-132038152D02*
X109940476Y-132704819D01*
X109940476Y-132133390D02*
X109988095Y-132085771D01*
X109988095Y-132085771D02*
X110083333Y-132038152D01*
X110083333Y-132038152D02*
X110226190Y-132038152D01*
X110226190Y-132038152D02*
X110321428Y-132085771D01*
X110321428Y-132085771D02*
X110369047Y-132181009D01*
X110369047Y-132181009D02*
X110369047Y-132704819D01*
X111273809Y-132704819D02*
X111273809Y-131704819D01*
X111273809Y-132657200D02*
X111178571Y-132704819D01*
X111178571Y-132704819D02*
X110988095Y-132704819D01*
X110988095Y-132704819D02*
X110892857Y-132657200D01*
X110892857Y-132657200D02*
X110845238Y-132609580D01*
X110845238Y-132609580D02*
X110797619Y-132514342D01*
X110797619Y-132514342D02*
X110797619Y-132228628D01*
X110797619Y-132228628D02*
X110845238Y-132133390D01*
X110845238Y-132133390D02*
X110892857Y-132085771D01*
X110892857Y-132085771D02*
X110988095Y-132038152D01*
X110988095Y-132038152D02*
X111178571Y-132038152D01*
X111178571Y-132038152D02*
X111273809Y-132085771D01*
X112464286Y-132657200D02*
X112607143Y-132704819D01*
X112607143Y-132704819D02*
X112845238Y-132704819D01*
X112845238Y-132704819D02*
X112940476Y-132657200D01*
X112940476Y-132657200D02*
X112988095Y-132609580D01*
X112988095Y-132609580D02*
X113035714Y-132514342D01*
X113035714Y-132514342D02*
X113035714Y-132419104D01*
X113035714Y-132419104D02*
X112988095Y-132323866D01*
X112988095Y-132323866D02*
X112940476Y-132276247D01*
X112940476Y-132276247D02*
X112845238Y-132228628D01*
X112845238Y-132228628D02*
X112654762Y-132181009D01*
X112654762Y-132181009D02*
X112559524Y-132133390D01*
X112559524Y-132133390D02*
X112511905Y-132085771D01*
X112511905Y-132085771D02*
X112464286Y-131990533D01*
X112464286Y-131990533D02*
X112464286Y-131895295D01*
X112464286Y-131895295D02*
X112511905Y-131800057D01*
X112511905Y-131800057D02*
X112559524Y-131752438D01*
X112559524Y-131752438D02*
X112654762Y-131704819D01*
X112654762Y-131704819D02*
X112892857Y-131704819D01*
X112892857Y-131704819D02*
X113035714Y-131752438D01*
X113321429Y-132038152D02*
X113702381Y-132038152D01*
X113464286Y-131704819D02*
X113464286Y-132561961D01*
X113464286Y-132561961D02*
X113511905Y-132657200D01*
X113511905Y-132657200D02*
X113607143Y-132704819D01*
X113607143Y-132704819D02*
X113702381Y-132704819D01*
X114035715Y-132704819D02*
X114035715Y-132038152D01*
X114035715Y-132228628D02*
X114083334Y-132133390D01*
X114083334Y-132133390D02*
X114130953Y-132085771D01*
X114130953Y-132085771D02*
X114226191Y-132038152D01*
X114226191Y-132038152D02*
X114321429Y-132038152D01*
X115083334Y-132704819D02*
X115083334Y-132181009D01*
X115083334Y-132181009D02*
X115035715Y-132085771D01*
X115035715Y-132085771D02*
X114940477Y-132038152D01*
X114940477Y-132038152D02*
X114750001Y-132038152D01*
X114750001Y-132038152D02*
X114654763Y-132085771D01*
X115083334Y-132657200D02*
X114988096Y-132704819D01*
X114988096Y-132704819D02*
X114750001Y-132704819D01*
X114750001Y-132704819D02*
X114654763Y-132657200D01*
X114654763Y-132657200D02*
X114607144Y-132561961D01*
X114607144Y-132561961D02*
X114607144Y-132466723D01*
X114607144Y-132466723D02*
X114654763Y-132371485D01*
X114654763Y-132371485D02*
X114750001Y-132323866D01*
X114750001Y-132323866D02*
X114988096Y-132323866D01*
X114988096Y-132323866D02*
X115083334Y-132276247D01*
X115559525Y-132038152D02*
X115559525Y-133038152D01*
X115559525Y-132085771D02*
X115654763Y-132038152D01*
X115654763Y-132038152D02*
X115845239Y-132038152D01*
X115845239Y-132038152D02*
X115940477Y-132085771D01*
X115940477Y-132085771D02*
X115988096Y-132133390D01*
X115988096Y-132133390D02*
X116035715Y-132228628D01*
X116035715Y-132228628D02*
X116035715Y-132514342D01*
X116035715Y-132514342D02*
X115988096Y-132609580D01*
X115988096Y-132609580D02*
X115940477Y-132657200D01*
X115940477Y-132657200D02*
X115845239Y-132704819D01*
X115845239Y-132704819D02*
X115654763Y-132704819D01*
X115654763Y-132704819D02*
X115559525Y-132657200D01*
X102666666Y-106274819D02*
X102666666Y-106989104D01*
X102666666Y-106989104D02*
X102619047Y-107131961D01*
X102619047Y-107131961D02*
X102523809Y-107227200D01*
X102523809Y-107227200D02*
X102380952Y-107274819D01*
X102380952Y-107274819D02*
X102285714Y-107274819D01*
X103190476Y-107274819D02*
X103380952Y-107274819D01*
X103380952Y-107274819D02*
X103476190Y-107227200D01*
X103476190Y-107227200D02*
X103523809Y-107179580D01*
X103523809Y-107179580D02*
X103619047Y-107036723D01*
X103619047Y-107036723D02*
X103666666Y-106846247D01*
X103666666Y-106846247D02*
X103666666Y-106465295D01*
X103666666Y-106465295D02*
X103619047Y-106370057D01*
X103619047Y-106370057D02*
X103571428Y-106322438D01*
X103571428Y-106322438D02*
X103476190Y-106274819D01*
X103476190Y-106274819D02*
X103285714Y-106274819D01*
X103285714Y-106274819D02*
X103190476Y-106322438D01*
X103190476Y-106322438D02*
X103142857Y-106370057D01*
X103142857Y-106370057D02*
X103095238Y-106465295D01*
X103095238Y-106465295D02*
X103095238Y-106703390D01*
X103095238Y-106703390D02*
X103142857Y-106798628D01*
X103142857Y-106798628D02*
X103190476Y-106846247D01*
X103190476Y-106846247D02*
X103285714Y-106893866D01*
X103285714Y-106893866D02*
X103476190Y-106893866D01*
X103476190Y-106893866D02*
X103571428Y-106846247D01*
X103571428Y-106846247D02*
X103619047Y-106798628D01*
X103619047Y-106798628D02*
X103666666Y-106703390D01*
X137690476Y-106274819D02*
X137690476Y-106989104D01*
X137690476Y-106989104D02*
X137642857Y-107131961D01*
X137642857Y-107131961D02*
X137547619Y-107227200D01*
X137547619Y-107227200D02*
X137404762Y-107274819D01*
X137404762Y-107274819D02*
X137309524Y-107274819D01*
X138690476Y-107274819D02*
X138119048Y-107274819D01*
X138404762Y-107274819D02*
X138404762Y-106274819D01*
X138404762Y-106274819D02*
X138309524Y-106417676D01*
X138309524Y-106417676D02*
X138214286Y-106512914D01*
X138214286Y-106512914D02*
X138119048Y-106560533D01*
X139309524Y-106274819D02*
X139404762Y-106274819D01*
X139404762Y-106274819D02*
X139500000Y-106322438D01*
X139500000Y-106322438D02*
X139547619Y-106370057D01*
X139547619Y-106370057D02*
X139595238Y-106465295D01*
X139595238Y-106465295D02*
X139642857Y-106655771D01*
X139642857Y-106655771D02*
X139642857Y-106893866D01*
X139642857Y-106893866D02*
X139595238Y-107084342D01*
X139595238Y-107084342D02*
X139547619Y-107179580D01*
X139547619Y-107179580D02*
X139500000Y-107227200D01*
X139500000Y-107227200D02*
X139404762Y-107274819D01*
X139404762Y-107274819D02*
X139309524Y-107274819D01*
X139309524Y-107274819D02*
X139214286Y-107227200D01*
X139214286Y-107227200D02*
X139166667Y-107179580D01*
X139166667Y-107179580D02*
X139119048Y-107084342D01*
X139119048Y-107084342D02*
X139071429Y-106893866D01*
X139071429Y-106893866D02*
X139071429Y-106655771D01*
X139071429Y-106655771D02*
X139119048Y-106465295D01*
X139119048Y-106465295D02*
X139166667Y-106370057D01*
X139166667Y-106370057D02*
X139214286Y-106322438D01*
X139214286Y-106322438D02*
X139309524Y-106274819D01*
X210166666Y-106274819D02*
X210166666Y-106989104D01*
X210166666Y-106989104D02*
X210119047Y-107131961D01*
X210119047Y-107131961D02*
X210023809Y-107227200D01*
X210023809Y-107227200D02*
X209880952Y-107274819D01*
X209880952Y-107274819D02*
X209785714Y-107274819D01*
X210547619Y-106274819D02*
X211166666Y-106274819D01*
X211166666Y-106274819D02*
X210833333Y-106655771D01*
X210833333Y-106655771D02*
X210976190Y-106655771D01*
X210976190Y-106655771D02*
X211071428Y-106703390D01*
X211071428Y-106703390D02*
X211119047Y-106751009D01*
X211119047Y-106751009D02*
X211166666Y-106846247D01*
X211166666Y-106846247D02*
X211166666Y-107084342D01*
X211166666Y-107084342D02*
X211119047Y-107179580D01*
X211119047Y-107179580D02*
X211071428Y-107227200D01*
X211071428Y-107227200D02*
X210976190Y-107274819D01*
X210976190Y-107274819D02*
X210690476Y-107274819D01*
X210690476Y-107274819D02*
X210595238Y-107227200D01*
X210595238Y-107227200D02*
X210547619Y-107179580D01*
X105357142Y-109609580D02*
X105309523Y-109657200D01*
X105309523Y-109657200D02*
X105166666Y-109704819D01*
X105166666Y-109704819D02*
X105071428Y-109704819D01*
X105071428Y-109704819D02*
X104928571Y-109657200D01*
X104928571Y-109657200D02*
X104833333Y-109561961D01*
X104833333Y-109561961D02*
X104785714Y-109466723D01*
X104785714Y-109466723D02*
X104738095Y-109276247D01*
X104738095Y-109276247D02*
X104738095Y-109133390D01*
X104738095Y-109133390D02*
X104785714Y-108942914D01*
X104785714Y-108942914D02*
X104833333Y-108847676D01*
X104833333Y-108847676D02*
X104928571Y-108752438D01*
X104928571Y-108752438D02*
X105071428Y-108704819D01*
X105071428Y-108704819D02*
X105166666Y-108704819D01*
X105166666Y-108704819D02*
X105309523Y-108752438D01*
X105309523Y-108752438D02*
X105357142Y-108800057D01*
X106309523Y-109704819D02*
X105738095Y-109704819D01*
X106023809Y-109704819D02*
X106023809Y-108704819D01*
X106023809Y-108704819D02*
X105928571Y-108847676D01*
X105928571Y-108847676D02*
X105833333Y-108942914D01*
X105833333Y-108942914D02*
X105738095Y-108990533D01*
X107261904Y-109704819D02*
X106690476Y-109704819D01*
X106976190Y-109704819D02*
X106976190Y-108704819D01*
X106976190Y-108704819D02*
X106880952Y-108847676D01*
X106880952Y-108847676D02*
X106785714Y-108942914D01*
X106785714Y-108942914D02*
X106690476Y-108990533D01*
X149190476Y-106274819D02*
X149190476Y-106989104D01*
X149190476Y-106989104D02*
X149142857Y-107131961D01*
X149142857Y-107131961D02*
X149047619Y-107227200D01*
X149047619Y-107227200D02*
X148904762Y-107274819D01*
X148904762Y-107274819D02*
X148809524Y-107274819D01*
X150190476Y-107274819D02*
X149619048Y-107274819D01*
X149904762Y-107274819D02*
X149904762Y-106274819D01*
X149904762Y-106274819D02*
X149809524Y-106417676D01*
X149809524Y-106417676D02*
X149714286Y-106512914D01*
X149714286Y-106512914D02*
X149619048Y-106560533D01*
X150523810Y-106274819D02*
X151142857Y-106274819D01*
X151142857Y-106274819D02*
X150809524Y-106655771D01*
X150809524Y-106655771D02*
X150952381Y-106655771D01*
X150952381Y-106655771D02*
X151047619Y-106703390D01*
X151047619Y-106703390D02*
X151095238Y-106751009D01*
X151095238Y-106751009D02*
X151142857Y-106846247D01*
X151142857Y-106846247D02*
X151142857Y-107084342D01*
X151142857Y-107084342D02*
X151095238Y-107179580D01*
X151095238Y-107179580D02*
X151047619Y-107227200D01*
X151047619Y-107227200D02*
X150952381Y-107274819D01*
X150952381Y-107274819D02*
X150666667Y-107274819D01*
X150666667Y-107274819D02*
X150571429Y-107227200D01*
X150571429Y-107227200D02*
X150523810Y-107179580D01*
X198666666Y-106274819D02*
X198666666Y-106989104D01*
X198666666Y-106989104D02*
X198619047Y-107131961D01*
X198619047Y-107131961D02*
X198523809Y-107227200D01*
X198523809Y-107227200D02*
X198380952Y-107274819D01*
X198380952Y-107274819D02*
X198285714Y-107274819D01*
X199619047Y-106274819D02*
X199142857Y-106274819D01*
X199142857Y-106274819D02*
X199095238Y-106751009D01*
X199095238Y-106751009D02*
X199142857Y-106703390D01*
X199142857Y-106703390D02*
X199238095Y-106655771D01*
X199238095Y-106655771D02*
X199476190Y-106655771D01*
X199476190Y-106655771D02*
X199571428Y-106703390D01*
X199571428Y-106703390D02*
X199619047Y-106751009D01*
X199619047Y-106751009D02*
X199666666Y-106846247D01*
X199666666Y-106846247D02*
X199666666Y-107084342D01*
X199666666Y-107084342D02*
X199619047Y-107179580D01*
X199619047Y-107179580D02*
X199571428Y-107227200D01*
X199571428Y-107227200D02*
X199476190Y-107274819D01*
X199476190Y-107274819D02*
X199238095Y-107274819D01*
X199238095Y-107274819D02*
X199142857Y-107227200D01*
X199142857Y-107227200D02*
X199095238Y-107179580D01*
X185940476Y-106274819D02*
X185940476Y-106989104D01*
X185940476Y-106989104D02*
X185892857Y-107131961D01*
X185892857Y-107131961D02*
X185797619Y-107227200D01*
X185797619Y-107227200D02*
X185654762Y-107274819D01*
X185654762Y-107274819D02*
X185559524Y-107274819D01*
X186940476Y-107274819D02*
X186369048Y-107274819D01*
X186654762Y-107274819D02*
X186654762Y-106274819D01*
X186654762Y-106274819D02*
X186559524Y-106417676D01*
X186559524Y-106417676D02*
X186464286Y-106512914D01*
X186464286Y-106512914D02*
X186369048Y-106560533D01*
X187845238Y-106274819D02*
X187369048Y-106274819D01*
X187369048Y-106274819D02*
X187321429Y-106751009D01*
X187321429Y-106751009D02*
X187369048Y-106703390D01*
X187369048Y-106703390D02*
X187464286Y-106655771D01*
X187464286Y-106655771D02*
X187702381Y-106655771D01*
X187702381Y-106655771D02*
X187797619Y-106703390D01*
X187797619Y-106703390D02*
X187845238Y-106751009D01*
X187845238Y-106751009D02*
X187892857Y-106846247D01*
X187892857Y-106846247D02*
X187892857Y-107084342D01*
X187892857Y-107084342D02*
X187845238Y-107179580D01*
X187845238Y-107179580D02*
X187797619Y-107227200D01*
X187797619Y-107227200D02*
X187702381Y-107274819D01*
X187702381Y-107274819D02*
X187464286Y-107274819D01*
X187464286Y-107274819D02*
X187369048Y-107227200D01*
X187369048Y-107227200D02*
X187321429Y-107179580D01*
X115882142Y-109859580D02*
X115834523Y-109907200D01*
X115834523Y-109907200D02*
X115691666Y-109954819D01*
X115691666Y-109954819D02*
X115596428Y-109954819D01*
X115596428Y-109954819D02*
X115453571Y-109907200D01*
X115453571Y-109907200D02*
X115358333Y-109811961D01*
X115358333Y-109811961D02*
X115310714Y-109716723D01*
X115310714Y-109716723D02*
X115263095Y-109526247D01*
X115263095Y-109526247D02*
X115263095Y-109383390D01*
X115263095Y-109383390D02*
X115310714Y-109192914D01*
X115310714Y-109192914D02*
X115358333Y-109097676D01*
X115358333Y-109097676D02*
X115453571Y-109002438D01*
X115453571Y-109002438D02*
X115596428Y-108954819D01*
X115596428Y-108954819D02*
X115691666Y-108954819D01*
X115691666Y-108954819D02*
X115834523Y-109002438D01*
X115834523Y-109002438D02*
X115882142Y-109050057D01*
X116834523Y-109954819D02*
X116263095Y-109954819D01*
X116548809Y-109954819D02*
X116548809Y-108954819D01*
X116548809Y-108954819D02*
X116453571Y-109097676D01*
X116453571Y-109097676D02*
X116358333Y-109192914D01*
X116358333Y-109192914D02*
X116263095Y-109240533D01*
X117215476Y-109050057D02*
X117263095Y-109002438D01*
X117263095Y-109002438D02*
X117358333Y-108954819D01*
X117358333Y-108954819D02*
X117596428Y-108954819D01*
X117596428Y-108954819D02*
X117691666Y-109002438D01*
X117691666Y-109002438D02*
X117739285Y-109050057D01*
X117739285Y-109050057D02*
X117786904Y-109145295D01*
X117786904Y-109145295D02*
X117786904Y-109240533D01*
X117786904Y-109240533D02*
X117739285Y-109383390D01*
X117739285Y-109383390D02*
X117167857Y-109954819D01*
X117167857Y-109954819D02*
X117786904Y-109954819D01*
X99535714Y-115954819D02*
X99535714Y-114954819D01*
X99535714Y-114954819D02*
X99916666Y-114954819D01*
X99916666Y-114954819D02*
X100011904Y-115002438D01*
X100011904Y-115002438D02*
X100059523Y-115050057D01*
X100059523Y-115050057D02*
X100107142Y-115145295D01*
X100107142Y-115145295D02*
X100107142Y-115288152D01*
X100107142Y-115288152D02*
X100059523Y-115383390D01*
X100059523Y-115383390D02*
X100011904Y-115431009D01*
X100011904Y-115431009D02*
X99916666Y-115478628D01*
X99916666Y-115478628D02*
X99535714Y-115478628D01*
X100488095Y-115907200D02*
X100630952Y-115954819D01*
X100630952Y-115954819D02*
X100869047Y-115954819D01*
X100869047Y-115954819D02*
X100964285Y-115907200D01*
X100964285Y-115907200D02*
X101011904Y-115859580D01*
X101011904Y-115859580D02*
X101059523Y-115764342D01*
X101059523Y-115764342D02*
X101059523Y-115669104D01*
X101059523Y-115669104D02*
X101011904Y-115573866D01*
X101011904Y-115573866D02*
X100964285Y-115526247D01*
X100964285Y-115526247D02*
X100869047Y-115478628D01*
X100869047Y-115478628D02*
X100678571Y-115431009D01*
X100678571Y-115431009D02*
X100583333Y-115383390D01*
X100583333Y-115383390D02*
X100535714Y-115335771D01*
X100535714Y-115335771D02*
X100488095Y-115240533D01*
X100488095Y-115240533D02*
X100488095Y-115145295D01*
X100488095Y-115145295D02*
X100535714Y-115050057D01*
X100535714Y-115050057D02*
X100583333Y-115002438D01*
X100583333Y-115002438D02*
X100678571Y-114954819D01*
X100678571Y-114954819D02*
X100916666Y-114954819D01*
X100916666Y-114954819D02*
X101059523Y-115002438D01*
X102011904Y-115954819D02*
X101440476Y-115954819D01*
X101726190Y-115954819D02*
X101726190Y-114954819D01*
X101726190Y-114954819D02*
X101630952Y-115097676D01*
X101630952Y-115097676D02*
X101535714Y-115192914D01*
X101535714Y-115192914D02*
X101440476Y-115240533D01*
X92454819Y-122738094D02*
X91454819Y-122738094D01*
X91454819Y-122738094D02*
X91454819Y-122499999D01*
X91454819Y-122499999D02*
X91502438Y-122357142D01*
X91502438Y-122357142D02*
X91597676Y-122261904D01*
X91597676Y-122261904D02*
X91692914Y-122214285D01*
X91692914Y-122214285D02*
X91883390Y-122166666D01*
X91883390Y-122166666D02*
X92026247Y-122166666D01*
X92026247Y-122166666D02*
X92216723Y-122214285D01*
X92216723Y-122214285D02*
X92311961Y-122261904D01*
X92311961Y-122261904D02*
X92407200Y-122357142D01*
X92407200Y-122357142D02*
X92454819Y-122499999D01*
X92454819Y-122499999D02*
X92454819Y-122738094D01*
X92454819Y-121214285D02*
X92454819Y-121785713D01*
X92454819Y-121499999D02*
X91454819Y-121499999D01*
X91454819Y-121499999D02*
X91597676Y-121595237D01*
X91597676Y-121595237D02*
X91692914Y-121690475D01*
X91692914Y-121690475D02*
X91740533Y-121785713D01*
X82333333Y-114609580D02*
X82285714Y-114657200D01*
X82285714Y-114657200D02*
X82142857Y-114704819D01*
X82142857Y-114704819D02*
X82047619Y-114704819D01*
X82047619Y-114704819D02*
X81904762Y-114657200D01*
X81904762Y-114657200D02*
X81809524Y-114561961D01*
X81809524Y-114561961D02*
X81761905Y-114466723D01*
X81761905Y-114466723D02*
X81714286Y-114276247D01*
X81714286Y-114276247D02*
X81714286Y-114133390D01*
X81714286Y-114133390D02*
X81761905Y-113942914D01*
X81761905Y-113942914D02*
X81809524Y-113847676D01*
X81809524Y-113847676D02*
X81904762Y-113752438D01*
X81904762Y-113752438D02*
X82047619Y-113704819D01*
X82047619Y-113704819D02*
X82142857Y-113704819D01*
X82142857Y-113704819D02*
X82285714Y-113752438D01*
X82285714Y-113752438D02*
X82333333Y-113800057D01*
X83285714Y-114704819D02*
X82714286Y-114704819D01*
X83000000Y-114704819D02*
X83000000Y-113704819D01*
X83000000Y-113704819D02*
X82904762Y-113847676D01*
X82904762Y-113847676D02*
X82809524Y-113942914D01*
X82809524Y-113942914D02*
X82714286Y-113990533D01*
X78690476Y-106274819D02*
X78690476Y-106989104D01*
X78690476Y-106989104D02*
X78642857Y-107131961D01*
X78642857Y-107131961D02*
X78547619Y-107227200D01*
X78547619Y-107227200D02*
X78404762Y-107274819D01*
X78404762Y-107274819D02*
X78309524Y-107274819D01*
X79690476Y-107274819D02*
X79119048Y-107274819D01*
X79404762Y-107274819D02*
X79404762Y-106274819D01*
X79404762Y-106274819D02*
X79309524Y-106417676D01*
X79309524Y-106417676D02*
X79214286Y-106512914D01*
X79214286Y-106512914D02*
X79119048Y-106560533D01*
X80071429Y-106370057D02*
X80119048Y-106322438D01*
X80119048Y-106322438D02*
X80214286Y-106274819D01*
X80214286Y-106274819D02*
X80452381Y-106274819D01*
X80452381Y-106274819D02*
X80547619Y-106322438D01*
X80547619Y-106322438D02*
X80595238Y-106370057D01*
X80595238Y-106370057D02*
X80642857Y-106465295D01*
X80642857Y-106465295D02*
X80642857Y-106560533D01*
X80642857Y-106560533D02*
X80595238Y-106703390D01*
X80595238Y-106703390D02*
X80023810Y-107274819D01*
X80023810Y-107274819D02*
X80642857Y-107274819D01*
X60666666Y-100954819D02*
X60666666Y-101669104D01*
X60666666Y-101669104D02*
X60619047Y-101811961D01*
X60619047Y-101811961D02*
X60523809Y-101907200D01*
X60523809Y-101907200D02*
X60380952Y-101954819D01*
X60380952Y-101954819D02*
X60285714Y-101954819D01*
X61285714Y-101383390D02*
X61190476Y-101335771D01*
X61190476Y-101335771D02*
X61142857Y-101288152D01*
X61142857Y-101288152D02*
X61095238Y-101192914D01*
X61095238Y-101192914D02*
X61095238Y-101145295D01*
X61095238Y-101145295D02*
X61142857Y-101050057D01*
X61142857Y-101050057D02*
X61190476Y-101002438D01*
X61190476Y-101002438D02*
X61285714Y-100954819D01*
X61285714Y-100954819D02*
X61476190Y-100954819D01*
X61476190Y-100954819D02*
X61571428Y-101002438D01*
X61571428Y-101002438D02*
X61619047Y-101050057D01*
X61619047Y-101050057D02*
X61666666Y-101145295D01*
X61666666Y-101145295D02*
X61666666Y-101192914D01*
X61666666Y-101192914D02*
X61619047Y-101288152D01*
X61619047Y-101288152D02*
X61571428Y-101335771D01*
X61571428Y-101335771D02*
X61476190Y-101383390D01*
X61476190Y-101383390D02*
X61285714Y-101383390D01*
X61285714Y-101383390D02*
X61190476Y-101431009D01*
X61190476Y-101431009D02*
X61142857Y-101478628D01*
X61142857Y-101478628D02*
X61095238Y-101573866D01*
X61095238Y-101573866D02*
X61095238Y-101764342D01*
X61095238Y-101764342D02*
X61142857Y-101859580D01*
X61142857Y-101859580D02*
X61190476Y-101907200D01*
X61190476Y-101907200D02*
X61285714Y-101954819D01*
X61285714Y-101954819D02*
X61476190Y-101954819D01*
X61476190Y-101954819D02*
X61571428Y-101907200D01*
X61571428Y-101907200D02*
X61619047Y-101859580D01*
X61619047Y-101859580D02*
X61666666Y-101764342D01*
X61666666Y-101764342D02*
X61666666Y-101573866D01*
X61666666Y-101573866D02*
X61619047Y-101478628D01*
X61619047Y-101478628D02*
X61571428Y-101431009D01*
X61571428Y-101431009D02*
X61476190Y-101383390D01*
D12*
%TO.C,C9*%
X115370580Y-115010000D02*
X115089420Y-115010000D01*
X115370580Y-113990000D02*
X115089420Y-113990000D01*
%TO.C,C10*%
X107910580Y-115010000D02*
X107629420Y-115010000D01*
X107910580Y-113990000D02*
X107629420Y-113990000D01*
%TO.C,J11*%
X156630000Y-95780000D02*
X163950000Y-95780000D01*
X156630000Y-105820000D02*
X156630000Y-95780000D01*
X164550000Y-95780000D02*
X166870000Y-95780000D01*
X166870000Y-95780000D02*
X166870000Y-105820000D01*
X166870000Y-96400000D02*
X156630000Y-96400000D01*
X166870000Y-97900000D02*
X156630000Y-97900000D01*
X166870000Y-102800000D02*
X156630000Y-102800000D01*
X166870000Y-105820000D02*
X156630000Y-105820000D01*
X164250000Y-95780000D02*
X163810000Y-95170000D01*
X164690000Y-95170000D01*
X164250000Y-95780000D01*
G36*
X164250000Y-95780000D02*
G01*
X163810000Y-95170000D01*
X164690000Y-95170000D01*
X164250000Y-95780000D01*
G37*
%TO.C,J1*%
X228380000Y-95780000D02*
X235700000Y-95780000D01*
X228380000Y-105820000D02*
X228380000Y-95780000D01*
X236300000Y-95780000D02*
X238620000Y-95780000D01*
X238620000Y-95780000D02*
X238620000Y-105820000D01*
X238620000Y-96400000D02*
X228380000Y-96400000D01*
X238620000Y-97900000D02*
X228380000Y-97900000D01*
X238620000Y-102800000D02*
X228380000Y-102800000D01*
X238620000Y-105820000D02*
X228380000Y-105820000D01*
X236000000Y-95780000D02*
X235560000Y-95170000D01*
X236440000Y-95170000D01*
X236000000Y-95780000D01*
G36*
X236000000Y-95780000D02*
G01*
X235560000Y-95170000D01*
X236440000Y-95170000D01*
X236000000Y-95780000D01*
G37*
%TO.C,J2*%
X216880000Y-95780000D02*
X224200000Y-95780000D01*
X216880000Y-105820000D02*
X216880000Y-95780000D01*
X224800000Y-95780000D02*
X227120000Y-95780000D01*
X227120000Y-95780000D02*
X227120000Y-105820000D01*
X227120000Y-96400000D02*
X216880000Y-96400000D01*
X227120000Y-97900000D02*
X216880000Y-97900000D01*
X227120000Y-102800000D02*
X216880000Y-102800000D01*
X227120000Y-105820000D02*
X216880000Y-105820000D01*
X224500000Y-95780000D02*
X224060000Y-95170000D01*
X224940000Y-95170000D01*
X224500000Y-95780000D01*
G36*
X224500000Y-95780000D02*
G01*
X224060000Y-95170000D01*
X224940000Y-95170000D01*
X224500000Y-95780000D01*
G37*
%TO.C,J14*%
X168630000Y-95857500D02*
X175950000Y-95857500D01*
X168630000Y-105897500D02*
X168630000Y-95857500D01*
X176550000Y-95857500D02*
X178870000Y-95857500D01*
X178870000Y-95857500D02*
X178870000Y-105897500D01*
X178870000Y-96477500D02*
X168630000Y-96477500D01*
X178870000Y-97977500D02*
X168630000Y-97977500D01*
X178870000Y-102877500D02*
X168630000Y-102877500D01*
X178870000Y-105897500D02*
X168630000Y-105897500D01*
X176250000Y-95857500D02*
X175810000Y-95247500D01*
X176690000Y-95247500D01*
X176250000Y-95857500D01*
G36*
X176250000Y-95857500D02*
G01*
X175810000Y-95247500D01*
X176690000Y-95247500D01*
X176250000Y-95857500D01*
G37*
%TO.C,J4*%
X86130000Y-95780000D02*
X93450000Y-95780000D01*
X86130000Y-105820000D02*
X86130000Y-95780000D01*
X94050000Y-95780000D02*
X96370000Y-95780000D01*
X96370000Y-95780000D02*
X96370000Y-105820000D01*
X96370000Y-96400000D02*
X86130000Y-96400000D01*
X96370000Y-97900000D02*
X86130000Y-97900000D01*
X96370000Y-102800000D02*
X86130000Y-102800000D01*
X96370000Y-105820000D02*
X86130000Y-105820000D01*
X93750000Y-95780000D02*
X93310000Y-95170000D01*
X94190000Y-95170000D01*
X93750000Y-95780000D01*
G36*
X93750000Y-95780000D02*
G01*
X93310000Y-95170000D01*
X94190000Y-95170000D01*
X93750000Y-95780000D01*
G37*
%TO.C,J6*%
X109630000Y-95857500D02*
X116950000Y-95857500D01*
X109630000Y-105897500D02*
X109630000Y-95857500D01*
X117550000Y-95857500D02*
X119870000Y-95857500D01*
X119870000Y-95857500D02*
X119870000Y-105897500D01*
X119870000Y-96477500D02*
X109630000Y-96477500D01*
X119870000Y-97977500D02*
X109630000Y-97977500D01*
X119870000Y-102877500D02*
X109630000Y-102877500D01*
X119870000Y-105897500D02*
X109630000Y-105897500D01*
X117250000Y-95857500D02*
X116810000Y-95247500D01*
X117690000Y-95247500D01*
X117250000Y-95857500D01*
G36*
X117250000Y-95857500D02*
G01*
X116810000Y-95247500D01*
X117690000Y-95247500D01*
X117250000Y-95857500D01*
G37*
%TO.C,J7*%
X121630000Y-95857500D02*
X128950000Y-95857500D01*
X121630000Y-105897500D02*
X121630000Y-95857500D01*
X129550000Y-95857500D02*
X131870000Y-95857500D01*
X131870000Y-95857500D02*
X131870000Y-105897500D01*
X131870000Y-96477500D02*
X121630000Y-96477500D01*
X131870000Y-97977500D02*
X121630000Y-97977500D01*
X131870000Y-102877500D02*
X121630000Y-102877500D01*
X131870000Y-105897500D02*
X121630000Y-105897500D01*
X129250000Y-95857500D02*
X128810000Y-95247500D01*
X129690000Y-95247500D01*
X129250000Y-95857500D01*
G36*
X129250000Y-95857500D02*
G01*
X128810000Y-95247500D01*
X129690000Y-95247500D01*
X129250000Y-95857500D01*
G37*
%TO.C,J16*%
X63530000Y-121380000D02*
X73570000Y-121380000D01*
X63530000Y-123700000D02*
X63530000Y-121380000D01*
X63530000Y-131620000D02*
X63530000Y-124300000D01*
X64150000Y-121380000D02*
X64150000Y-131620000D01*
X65650000Y-121380000D02*
X65650000Y-131620000D01*
X70550000Y-121380000D02*
X70550000Y-131620000D01*
X73570000Y-121380000D02*
X73570000Y-131620000D01*
X73570000Y-131620000D02*
X63530000Y-131620000D01*
X63530000Y-124000000D02*
X62920000Y-124440000D01*
X62920000Y-123560000D01*
X63530000Y-124000000D01*
G36*
X63530000Y-124000000D02*
G01*
X62920000Y-124440000D01*
X62920000Y-123560000D01*
X63530000Y-124000000D01*
G37*
%TO.C,J17*%
X56950000Y-107400000D02*
X71550000Y-107400000D01*
X56950000Y-116600000D02*
X56950000Y-107400000D01*
X65950000Y-116600000D02*
X56950000Y-116600000D01*
X70050000Y-107160000D02*
X71790000Y-107160000D01*
X71550000Y-107400000D02*
X71550000Y-110200000D01*
X71550000Y-113800000D02*
X71550000Y-116600000D01*
X71550000Y-116600000D02*
X69550000Y-116600000D01*
X71790000Y-107160000D02*
X71790000Y-108900000D01*
%TO.C,J9*%
X97880000Y-95780000D02*
X105200000Y-95780000D01*
X97880000Y-105820000D02*
X97880000Y-95780000D01*
X105800000Y-95780000D02*
X108120000Y-95780000D01*
X108120000Y-95780000D02*
X108120000Y-105820000D01*
X108120000Y-96400000D02*
X97880000Y-96400000D01*
X108120000Y-97900000D02*
X97880000Y-97900000D01*
X108120000Y-102800000D02*
X97880000Y-102800000D01*
X108120000Y-105820000D02*
X97880000Y-105820000D01*
X105500000Y-95780000D02*
X105060000Y-95170000D01*
X105940000Y-95170000D01*
X105500000Y-95780000D01*
G36*
X105500000Y-95780000D02*
G01*
X105060000Y-95170000D01*
X105940000Y-95170000D01*
X105500000Y-95780000D01*
G37*
%TO.C,J10*%
X133380000Y-95780000D02*
X140700000Y-95780000D01*
X133380000Y-105820000D02*
X133380000Y-95780000D01*
X141300000Y-95780000D02*
X143620000Y-95780000D01*
X143620000Y-95780000D02*
X143620000Y-105820000D01*
X143620000Y-96400000D02*
X133380000Y-96400000D01*
X143620000Y-97900000D02*
X133380000Y-97900000D01*
X143620000Y-102800000D02*
X133380000Y-102800000D01*
X143620000Y-105820000D02*
X133380000Y-105820000D01*
X141000000Y-95780000D02*
X140560000Y-95170000D01*
X141440000Y-95170000D01*
X141000000Y-95780000D01*
G36*
X141000000Y-95780000D02*
G01*
X140560000Y-95170000D01*
X141440000Y-95170000D01*
X141000000Y-95780000D01*
G37*
%TO.C,J3*%
X205380000Y-95780000D02*
X212700000Y-95780000D01*
X205380000Y-105820000D02*
X205380000Y-95780000D01*
X213300000Y-95780000D02*
X215620000Y-95780000D01*
X215620000Y-95780000D02*
X215620000Y-105820000D01*
X215620000Y-96400000D02*
X205380000Y-96400000D01*
X215620000Y-97900000D02*
X205380000Y-97900000D01*
X215620000Y-102800000D02*
X205380000Y-102800000D01*
X215620000Y-105820000D02*
X205380000Y-105820000D01*
X213000000Y-95780000D02*
X212560000Y-95170000D01*
X213440000Y-95170000D01*
X213000000Y-95780000D01*
G36*
X213000000Y-95780000D02*
G01*
X212560000Y-95170000D01*
X213440000Y-95170000D01*
X213000000Y-95780000D01*
G37*
%TO.C,C11*%
X106986252Y-110340000D02*
X105563748Y-110340000D01*
X106986252Y-112160000D02*
X105563748Y-112160000D01*
%TO.C,J13*%
X144880000Y-95780000D02*
X152200000Y-95780000D01*
X144880000Y-105820000D02*
X144880000Y-95780000D01*
X152800000Y-95780000D02*
X155120000Y-95780000D01*
X155120000Y-95780000D02*
X155120000Y-105820000D01*
X155120000Y-96400000D02*
X144880000Y-96400000D01*
X155120000Y-97900000D02*
X144880000Y-97900000D01*
X155120000Y-102800000D02*
X144880000Y-102800000D01*
X155120000Y-105820000D02*
X144880000Y-105820000D01*
X152500000Y-95780000D02*
X152060000Y-95170000D01*
X152940000Y-95170000D01*
X152500000Y-95780000D01*
G36*
X152500000Y-95780000D02*
G01*
X152060000Y-95170000D01*
X152940000Y-95170000D01*
X152500000Y-95780000D01*
G37*
%TO.C,J5*%
X193880000Y-95780000D02*
X201200000Y-95780000D01*
X193880000Y-105820000D02*
X193880000Y-95780000D01*
X201800000Y-95780000D02*
X204120000Y-95780000D01*
X204120000Y-95780000D02*
X204120000Y-105820000D01*
X204120000Y-96400000D02*
X193880000Y-96400000D01*
X204120000Y-97900000D02*
X193880000Y-97900000D01*
X204120000Y-102800000D02*
X193880000Y-102800000D01*
X204120000Y-105820000D02*
X193880000Y-105820000D01*
X201500000Y-95780000D02*
X201060000Y-95170000D01*
X201940000Y-95170000D01*
X201500000Y-95780000D01*
G36*
X201500000Y-95780000D02*
G01*
X201060000Y-95170000D01*
X201940000Y-95170000D01*
X201500000Y-95780000D01*
G37*
%TO.C,J15*%
X181630000Y-95780000D02*
X188950000Y-95780000D01*
X181630000Y-105820000D02*
X181630000Y-95780000D01*
X189550000Y-95780000D02*
X191870000Y-95780000D01*
X191870000Y-95780000D02*
X191870000Y-105820000D01*
X191870000Y-96400000D02*
X181630000Y-96400000D01*
X191870000Y-97900000D02*
X181630000Y-97900000D01*
X191870000Y-102800000D02*
X181630000Y-102800000D01*
X191870000Y-105820000D02*
X181630000Y-105820000D01*
X189250000Y-95780000D02*
X188810000Y-95170000D01*
X189690000Y-95170000D01*
X189250000Y-95780000D01*
G36*
X189250000Y-95780000D02*
G01*
X188810000Y-95170000D01*
X189690000Y-95170000D01*
X189250000Y-95780000D01*
G37*
%TO.C,C12*%
X117236252Y-110590000D02*
X115813748Y-110590000D01*
X117236252Y-112410000D02*
X115813748Y-112410000D01*
%TO.C,PS1*%
X97730000Y-116307500D02*
X119270000Y-116307500D01*
X97730000Y-127687500D02*
X97730000Y-116307500D01*
X100884000Y-127687500D02*
X97730000Y-127687500D01*
X119270000Y-116307500D02*
X119270000Y-127687500D01*
X119270000Y-127687500D02*
X101476000Y-127687500D01*
X101620000Y-128297500D02*
X100740000Y-128297500D01*
X101180000Y-127687500D01*
X101620000Y-128297500D01*
G36*
X101620000Y-128297500D02*
G01*
X100740000Y-128297500D01*
X101180000Y-127687500D01*
X101620000Y-128297500D01*
G37*
%TO.C,D1*%
X93100000Y-118990000D02*
X93100000Y-124500000D01*
X96400000Y-118990000D02*
X93100000Y-118990000D01*
X96400000Y-118990000D02*
X96400000Y-124500000D01*
%TO.C,C1*%
X80810000Y-122756041D02*
X76012000Y-122756041D01*
X80810000Y-122796041D02*
X76019000Y-122796041D01*
X80810000Y-122836041D02*
X76027000Y-122836041D01*
X80810000Y-122876041D02*
X76034000Y-122876041D01*
X80810000Y-122916041D02*
X76042000Y-122916041D01*
X80810000Y-122956041D02*
X76050000Y-122956041D01*
X80810000Y-122996041D02*
X76058000Y-122996041D01*
X80810000Y-123036041D02*
X76067000Y-123036041D01*
X80810000Y-123076041D02*
X76076000Y-123076041D01*
X80810000Y-123116041D02*
X76085000Y-123116041D01*
X80810000Y-123156041D02*
X76094000Y-123156041D01*
X80810000Y-123196041D02*
X76104000Y-123196041D01*
X80810000Y-123236041D02*
X76114000Y-123236041D01*
X80810000Y-123276041D02*
X76124000Y-123276041D01*
X80810000Y-123316041D02*
X76135000Y-123316041D01*
X80810000Y-123356041D02*
X76146000Y-123356041D01*
X80810000Y-123396041D02*
X76157000Y-123396041D01*
X80810000Y-123436041D02*
X76168000Y-123436041D01*
X80810000Y-123476041D02*
X76180000Y-123476041D01*
X80810000Y-123516041D02*
X76192000Y-123516041D01*
X80810000Y-123556041D02*
X76204000Y-123556041D01*
X80810000Y-123596041D02*
X76216000Y-123596041D01*
X80810000Y-123636041D02*
X76229000Y-123636041D01*
X80810000Y-123676041D02*
X76242000Y-123676041D01*
X80810000Y-123716041D02*
X76255000Y-123716041D01*
X80810000Y-123756041D02*
X76269000Y-123756041D01*
X80810000Y-123796041D02*
X76283000Y-123796041D01*
X80810000Y-123836041D02*
X76297000Y-123836041D01*
X80810000Y-123876041D02*
X76312000Y-123876041D01*
X80810000Y-123916041D02*
X76327000Y-123916041D01*
X80810000Y-123956041D02*
X76342000Y-123956041D01*
X80810000Y-123996041D02*
X76358000Y-123996041D01*
X80810000Y-124036041D02*
X76373000Y-124036041D01*
X80810000Y-124076041D02*
X76389000Y-124076041D01*
X80810000Y-124116041D02*
X76406000Y-124116041D01*
X80810000Y-124156041D02*
X76423000Y-124156041D01*
X80810000Y-124196041D02*
X76440000Y-124196041D01*
X80810000Y-124236041D02*
X76457000Y-124236041D01*
X80810000Y-124276041D02*
X76475000Y-124276041D01*
X80810000Y-124316041D02*
X76493000Y-124316041D01*
X80810000Y-124356041D02*
X76511000Y-124356041D01*
X80810000Y-124396041D02*
X76530000Y-124396041D01*
X80810000Y-124436041D02*
X76549000Y-124436041D01*
X80810000Y-124476041D02*
X76568000Y-124476041D01*
X80810000Y-124516041D02*
X76588000Y-124516041D01*
X80810000Y-124556041D02*
X76608000Y-124556041D01*
X80810000Y-124596041D02*
X76629000Y-124596041D01*
X80810000Y-124636041D02*
X76649000Y-124636041D01*
X80810000Y-124676041D02*
X76671000Y-124676041D01*
X80810000Y-124716041D02*
X76692000Y-124716041D01*
X80810000Y-124756041D02*
X76714000Y-124756041D01*
X80810000Y-124796041D02*
X76736000Y-124796041D01*
X80810000Y-124836041D02*
X76759000Y-124836041D01*
X80810000Y-124876041D02*
X76782000Y-124876041D01*
X80810000Y-124916041D02*
X76806000Y-124916041D01*
X80810000Y-124956041D02*
X76829000Y-124956041D01*
X80810000Y-124996041D02*
X76854000Y-124996041D01*
X80810000Y-125036041D02*
X76878000Y-125036041D01*
X80810000Y-125076041D02*
X76903000Y-125076041D01*
X80810000Y-125116041D02*
X76929000Y-125116041D01*
X80810000Y-125156041D02*
X76955000Y-125156041D01*
X80810000Y-125196041D02*
X76981000Y-125196041D01*
X80810000Y-125236041D02*
X77008000Y-125236041D01*
X80810000Y-125276041D02*
X77035000Y-125276041D01*
X80810000Y-125316041D02*
X77062000Y-125316041D01*
X80810000Y-125356041D02*
X77091000Y-125356041D01*
X80810000Y-125396041D02*
X77119000Y-125396041D01*
X80810000Y-125436041D02*
X77148000Y-125436041D01*
X80810000Y-125476041D02*
X77178000Y-125476041D01*
X80810000Y-125516041D02*
X77208000Y-125516041D01*
X80810000Y-125556041D02*
X77238000Y-125556041D01*
X80810000Y-125596041D02*
X77269000Y-125596041D01*
X82567000Y-128036041D02*
X81933000Y-128036041D01*
X83007000Y-127996041D02*
X81493000Y-127996041D01*
X83277000Y-127956041D02*
X81223000Y-127956041D01*
X83490000Y-127916041D02*
X81010000Y-127916041D01*
X83672000Y-127876041D02*
X80828000Y-127876041D01*
X83832000Y-127836041D02*
X80668000Y-127836041D01*
X83977000Y-127796041D02*
X80523000Y-127796041D01*
X84110000Y-127756041D02*
X80390000Y-127756041D01*
X84234000Y-127716041D02*
X80266000Y-127716041D01*
X84349000Y-127676041D02*
X80151000Y-127676041D01*
X84458000Y-127636041D02*
X80042000Y-127636041D01*
X84562000Y-127596041D02*
X79938000Y-127596041D01*
X84660000Y-127556041D02*
X79840000Y-127556041D01*
X84754000Y-127516041D02*
X79746000Y-127516041D01*
X84844000Y-127476041D02*
X79656000Y-127476041D01*
X84930000Y-127436041D02*
X79570000Y-127436041D01*
X85013000Y-127396041D02*
X79487000Y-127396041D01*
X85093000Y-127356041D02*
X79407000Y-127356041D01*
X85171000Y-127316041D02*
X79329000Y-127316041D01*
X85246000Y-127276041D02*
X79254000Y-127276041D01*
X85319000Y-127236041D02*
X79181000Y-127236041D01*
X85389000Y-127196041D02*
X79111000Y-127196041D01*
X85458000Y-127156041D02*
X79042000Y-127156041D01*
X85524000Y-127116041D02*
X78976000Y-127116041D01*
X85589000Y-127076041D02*
X78911000Y-127076041D01*
X85652000Y-127036041D02*
X78848000Y-127036041D01*
X85713000Y-126996041D02*
X78787000Y-126996041D01*
X85773000Y-126956041D02*
X78727000Y-126956041D01*
X85825000Y-114858959D02*
X85825000Y-116108959D01*
X85832000Y-126916041D02*
X78668000Y-126916041D01*
X85889000Y-126876041D02*
X78611000Y-126876041D01*
X85945000Y-126836041D02*
X78555000Y-126836041D01*
X86000000Y-126796041D02*
X78500000Y-126796041D01*
X86053000Y-126756041D02*
X78447000Y-126756041D01*
X86106000Y-126716041D02*
X78394000Y-126716041D01*
X86157000Y-126676041D02*
X78343000Y-126676041D01*
X86207000Y-126636041D02*
X78293000Y-126636041D01*
X86256000Y-126596041D02*
X78244000Y-126596041D01*
X86304000Y-126556041D02*
X78196000Y-126556041D01*
X86351000Y-126516041D02*
X78149000Y-126516041D01*
X86398000Y-126476041D02*
X78102000Y-126476041D01*
X86443000Y-126436041D02*
X78057000Y-126436041D01*
X86450000Y-115483959D02*
X85200000Y-115483959D01*
X86488000Y-126396041D02*
X78012000Y-126396041D01*
X86531000Y-126356041D02*
X77969000Y-126356041D01*
X86574000Y-126316041D02*
X77926000Y-126316041D01*
X86616000Y-126276041D02*
X77884000Y-126276041D01*
X86658000Y-126236041D02*
X77842000Y-126236041D01*
X86698000Y-126196041D02*
X77802000Y-126196041D01*
X86738000Y-126156041D02*
X77762000Y-126156041D01*
X86778000Y-126116041D02*
X77722000Y-126116041D01*
X86816000Y-126076041D02*
X77684000Y-126076041D01*
X86854000Y-126036041D02*
X77646000Y-126036041D01*
X86891000Y-125996041D02*
X77609000Y-125996041D01*
X86928000Y-125956041D02*
X77572000Y-125956041D01*
X86964000Y-125916041D02*
X77536000Y-125916041D01*
X86999000Y-125876041D02*
X77501000Y-125876041D01*
X87034000Y-125836041D02*
X77466000Y-125836041D01*
X87068000Y-125796041D02*
X77432000Y-125796041D01*
X87102000Y-125756041D02*
X77398000Y-125756041D01*
X87135000Y-125716041D02*
X77365000Y-125716041D01*
X87168000Y-125676041D02*
X77332000Y-125676041D01*
X87200000Y-125636041D02*
X77300000Y-125636041D01*
X87231000Y-125596041D02*
X83690000Y-125596041D01*
X87262000Y-125556041D02*
X83690000Y-125556041D01*
X87292000Y-125516041D02*
X83690000Y-125516041D01*
X87322000Y-125476041D02*
X83690000Y-125476041D01*
X87352000Y-125436041D02*
X83690000Y-125436041D01*
X87381000Y-125396041D02*
X83690000Y-125396041D01*
X87409000Y-125356041D02*
X83690000Y-125356041D01*
X87438000Y-125316041D02*
X83690000Y-125316041D01*
X87465000Y-125276041D02*
X83690000Y-125276041D01*
X87492000Y-125236041D02*
X83690000Y-125236041D01*
X87519000Y-125196041D02*
X83690000Y-125196041D01*
X87545000Y-125156041D02*
X83690000Y-125156041D01*
X87571000Y-125116041D02*
X83690000Y-125116041D01*
X87597000Y-125076041D02*
X83690000Y-125076041D01*
X87622000Y-125036041D02*
X83690000Y-125036041D01*
X87646000Y-124996041D02*
X83690000Y-124996041D01*
X87671000Y-124956041D02*
X83690000Y-124956041D01*
X87694000Y-124916041D02*
X83690000Y-124916041D01*
X87718000Y-124876041D02*
X83690000Y-124876041D01*
X87741000Y-124836041D02*
X83690000Y-124836041D01*
X87764000Y-124796041D02*
X83690000Y-124796041D01*
X87786000Y-124756041D02*
X83690000Y-124756041D01*
X87808000Y-124716041D02*
X83690000Y-124716041D01*
X87829000Y-124676041D02*
X83690000Y-124676041D01*
X87851000Y-124636041D02*
X83690000Y-124636041D01*
X87871000Y-124596041D02*
X83690000Y-124596041D01*
X87892000Y-124556041D02*
X83690000Y-124556041D01*
X87912000Y-124516041D02*
X83690000Y-124516041D01*
X87932000Y-124476041D02*
X83690000Y-124476041D01*
X87951000Y-124436041D02*
X83690000Y-124436041D01*
X87970000Y-124396041D02*
X83690000Y-124396041D01*
X87989000Y-124356041D02*
X83690000Y-124356041D01*
X88007000Y-124316041D02*
X83690000Y-124316041D01*
X88025000Y-124276041D02*
X83690000Y-124276041D01*
X88043000Y-124236041D02*
X83690000Y-124236041D01*
X88060000Y-124196041D02*
X83690000Y-124196041D01*
X88077000Y-124156041D02*
X83690000Y-124156041D01*
X88094000Y-124116041D02*
X83690000Y-124116041D01*
X88111000Y-124076041D02*
X83690000Y-124076041D01*
X88127000Y-124036041D02*
X83690000Y-124036041D01*
X88142000Y-123996041D02*
X83690000Y-123996041D01*
X88158000Y-123956041D02*
X83690000Y-123956041D01*
X88173000Y-123916041D02*
X83690000Y-123916041D01*
X88188000Y-123876041D02*
X83690000Y-123876041D01*
X88203000Y-123836041D02*
X83690000Y-123836041D01*
X88217000Y-123796041D02*
X83690000Y-123796041D01*
X88231000Y-123756041D02*
X83690000Y-123756041D01*
X88245000Y-123716041D02*
X83690000Y-123716041D01*
X88258000Y-123676041D02*
X83690000Y-123676041D01*
X88271000Y-123636041D02*
X83690000Y-123636041D01*
X88284000Y-123596041D02*
X83690000Y-123596041D01*
X88296000Y-123556041D02*
X83690000Y-123556041D01*
X88308000Y-123516041D02*
X83690000Y-123516041D01*
X88320000Y-123476041D02*
X83690000Y-123476041D01*
X88332000Y-123436041D02*
X83690000Y-123436041D01*
X88343000Y-123396041D02*
X83690000Y-123396041D01*
X88354000Y-123356041D02*
X83690000Y-123356041D01*
X88365000Y-123316041D02*
X83690000Y-123316041D01*
X88376000Y-123276041D02*
X83690000Y-123276041D01*
X88386000Y-123236041D02*
X83690000Y-123236041D01*
X88396000Y-123196041D02*
X83690000Y-123196041D01*
X88406000Y-123156041D02*
X83690000Y-123156041D01*
X88415000Y-123116041D02*
X83690000Y-123116041D01*
X88424000Y-123076041D02*
X83690000Y-123076041D01*
X88433000Y-123036041D02*
X83690000Y-123036041D01*
X88442000Y-122996041D02*
X83690000Y-122996041D01*
X88450000Y-122956041D02*
X83690000Y-122956041D01*
X88458000Y-122916041D02*
X83690000Y-122916041D01*
X88466000Y-122876041D02*
X83690000Y-122876041D01*
X88473000Y-122836041D02*
X83690000Y-122836041D01*
X88481000Y-122796041D02*
X83690000Y-122796041D01*
X88488000Y-122756041D02*
X83690000Y-122756041D01*
X88495000Y-122716041D02*
X76005000Y-122716041D01*
X88501000Y-122676041D02*
X75999000Y-122676041D01*
X88507000Y-122636041D02*
X75993000Y-122636041D01*
X88513000Y-122596041D02*
X75987000Y-122596041D01*
X88519000Y-122556041D02*
X75981000Y-122556041D01*
X88524000Y-122516041D02*
X75976000Y-122516041D01*
X88530000Y-122476041D02*
X75970000Y-122476041D01*
X88534000Y-122436041D02*
X75966000Y-122436041D01*
X88539000Y-122396041D02*
X75961000Y-122396041D01*
X88544000Y-122356041D02*
X75956000Y-122356041D01*
X88548000Y-122316041D02*
X75952000Y-122316041D01*
X88552000Y-122276041D02*
X75948000Y-122276041D01*
X88555000Y-122236041D02*
X75945000Y-122236041D01*
X88559000Y-122196041D02*
X75941000Y-122196041D01*
X88562000Y-122156041D02*
X75938000Y-122156041D01*
X88565000Y-122116041D02*
X75935000Y-122116041D01*
X88567000Y-122076041D02*
X75933000Y-122076041D01*
X88570000Y-122036041D02*
X75930000Y-122036041D01*
X88572000Y-121996041D02*
X75928000Y-121996041D01*
X88574000Y-121956041D02*
X75926000Y-121956041D01*
X88575000Y-121916041D02*
X75925000Y-121916041D01*
X88577000Y-121876041D02*
X75923000Y-121876041D01*
X88578000Y-121836041D02*
X75922000Y-121836041D01*
X88579000Y-121756041D02*
X75921000Y-121756041D01*
X88579000Y-121796041D02*
X75921000Y-121796041D01*
X88580000Y-121676041D02*
X75920000Y-121676041D01*
X88580000Y-121716041D02*
X75920000Y-121716041D01*
X88620000Y-121676041D02*
G75*
G02*
X75880000Y-121676041I-6370000J0D01*
G01*
X75880000Y-121676041D02*
G75*
G02*
X88620000Y-121676041I6370000J0D01*
G01*
%TO.C,J12*%
X74380000Y-95780000D02*
X81700000Y-95780000D01*
X74380000Y-105820000D02*
X74380000Y-95780000D01*
X82300000Y-95780000D02*
X84620000Y-95780000D01*
X84620000Y-95780000D02*
X84620000Y-105820000D01*
X84620000Y-96400000D02*
X74380000Y-96400000D01*
X84620000Y-97900000D02*
X74380000Y-97900000D01*
X84620000Y-102800000D02*
X74380000Y-102800000D01*
X84620000Y-105820000D02*
X74380000Y-105820000D01*
X82000000Y-95780000D02*
X81560000Y-95170000D01*
X82440000Y-95170000D01*
X82000000Y-95780000D01*
G36*
X82000000Y-95780000D02*
G01*
X81560000Y-95170000D01*
X82440000Y-95170000D01*
X82000000Y-95780000D01*
G37*
%TO.C,J8*%
X62630000Y-95780000D02*
X69950000Y-95780000D01*
X62630000Y-105820000D02*
X62630000Y-95780000D01*
X70550000Y-95780000D02*
X72870000Y-95780000D01*
X72870000Y-95780000D02*
X72870000Y-105820000D01*
X72870000Y-96400000D02*
X62630000Y-96400000D01*
X72870000Y-97900000D02*
X62630000Y-97900000D01*
X72870000Y-102800000D02*
X62630000Y-102800000D01*
X72870000Y-105820000D02*
X62630000Y-105820000D01*
X70250000Y-95780000D02*
X69810000Y-95170000D01*
X70690000Y-95170000D01*
X70250000Y-95780000D01*
G36*
X70250000Y-95780000D02*
G01*
X69810000Y-95170000D01*
X70690000Y-95170000D01*
X70250000Y-95780000D01*
G37*
%TD*%
M02*
