M48
; DRILL file {KiCad 9.0.7} date 2026-02-23T18:35:17-0500
; FORMAT={-:-/ absolute / metric / decimal}
; #@! TF.CreationDate,2026-02-23T18:35:17-05:00
; #@! TF.GenerationSoftware,Kicad,Pcbnew,9.0.7
; #@! TF.FileFunction,Plated,1,2,PTH
FMAT,2
METRIC
; #@! TA.AperFunction,Plated,PTH,ViaDrill
T1C0.300
; #@! TA.AperFunction,Plated,PTH,ComponentDrill
T2C0.850
; #@! TA.AperFunction,Plated,PTH,ComponentDrill
T3C1.200
; #@! TA.AperFunction,Plated,PTH,ComponentDrill
T4C1.300
; #@! TA.AperFunction,Plated,PTH,ComponentDrill
T5C1.600
; #@! TA.AperFunction,Plated,PTH,ComponentDrill
T6C3.200
%
G90
G05
T1
X103.5Y-111.25
X106.5Y-114.5
X108.0Y-108.5
X116.5Y-114.5
X119.25Y-111.5
T2
X101.18Y-117.938
X101.18Y-125.557
X108.8Y-117.938
X113.88Y-117.938
X116.42Y-117.938
X116.42Y-125.557
T3
X82.25Y-119.176
X82.25Y-124.176
T4
X65.25Y-100.5
X68.25Y-124.0
X68.25Y-129.0
X70.25Y-100.5
X77.0Y-100.5
X82.0Y-100.5
X88.75Y-100.5
X93.75Y-100.5
X100.5Y-100.5
X105.5Y-100.5
X112.25Y-100.578
X117.25Y-100.578
X124.25Y-100.578
X129.25Y-100.578
X136.0Y-100.5
X141.0Y-100.5
X147.5Y-100.5
X152.5Y-100.5
X159.25Y-100.5
X164.25Y-100.5
X171.25Y-100.578
X176.25Y-100.578
X184.25Y-100.5
X189.25Y-100.5
X196.5Y-100.5
X201.5Y-100.5
X208.0Y-100.5
X213.0Y-100.5
X219.5Y-100.5
X224.5Y-100.5
X231.0Y-100.5
X236.0Y-100.5
T5
X64.75Y-112.0
X67.75Y-116.7
X70.75Y-112.0
T6
X119.75Y-132.5
M30
